<svg width="28" height="28" viewBox="0 0 28 28" fill="none" xmlns="http://www.w3.org/2000/svg">
  <path d="M13.9989 4.76002C13.8272 4.76331 13.6522 4.82456 13.4826 4.93502L2.84264 13.335C2.5692 13.6063 2.37669 14.1903 2.65889 14.5513C2.94107 14.9122 3.53279 14.9603 3.87515 14.6563L13.9988 6.66761L24.1225 14.6563C24.4649 14.9603 25.0697 14.921 25.3388 14.5513C25.575 14.2264 25.5171 13.6052 25.155 13.335L14.515 4.93502C14.34 4.81252 14.1706 4.75674 13.9989 4.76002ZM7.2789 12.9587L5.5989 14.2887V22.4C5.5989 22.8638 5.97404 23.24 6.4389 23.24H11.7589C12.2226 23.24 12.5989 22.8638 12.5989 22.4V19.04C12.5989 18.2503 13.2092 17.64 13.9989 17.64C14.7886 17.64 15.3989 18.2503 15.3989 19.04V22.4C15.3989 22.8638 15.774 23.24 16.2389 23.24H21.5589C22.0226 23.24 22.3989 22.8638 22.3989 22.4V14.2887L20.7189 12.9587V21.56H17.0789V19.04C17.0789 17.348 15.6909 15.96 13.9989 15.96C12.3069 15.96 10.9189 17.348 10.9189 19.04V21.56H7.2789V12.9587Z" fill="white"/>
  </svg>
  