<svg width="20" height="20" viewBox="0 0 20 20" fill="none" xmlns="http://www.w3.org/2000/svg">
  <path d="M3.33961 19.5836H16.3039C18.1475 19.5836 19.6452 18.0817 19.6452 16.2423V5.45062C19.6452 3.60702 18.1433 2.10939 16.3039 2.10939H14.6699V0.720002C14.6699 0.323426 14.3464 2.05994e-06 13.9499 2.05994e-06C13.5533 2.05994e-06 13.2299 0.323441 13.2299 0.720002V2.10658L6.62062 2.10517V0.72C6.62062 0.323424 6.29718 0 5.90062 0C5.50404 0 5.18062 0.323438 5.18062 0.72V2.10658H3.34123C1.49764 2.10658 0 3.60846 0 5.44781V16.2406C0 18.0856 1.49767 19.5833 3.33983 19.5833L3.33961 19.5836ZM16.3079 18.1436H3.33961C2.29194 18.1436 1.43838 17.29 1.43838 16.2423L1.43979 9.5431H18.2079V16.2423C18.2079 17.29 17.3555 18.1436 16.3079 18.1436ZM3.33961 3.54521H5.179V4.86288C5.179 5.25946 5.50244 5.58288 5.899 5.58288C6.29557 5.58288 6.619 5.25945 6.619 4.86288V3.54521H13.2326V4.86288C13.2326 5.25946 13.556 5.58288 13.9526 5.58288C14.3491 5.58288 14.6726 5.25945 14.6726 4.86288V3.54521H16.3066C17.3543 3.54521 18.2079 4.39881 18.2079 5.44644V8.10004H1.43978V5.44644C1.43978 4.39877 2.29198 3.54521 3.33961 3.54521Z" fill="white"/>
  </svg>
  