<svg width="29" height="29" viewBox="0 0 29 29" fill="none" xmlns="http://www.w3.org/2000/svg">
  <path d="M10.1953 23.8763H27.414C27.6644 23.8763 27.8671 23.6735 27.8671 23.4231V19.337C27.8671 17.5948 26.9405 16.0383 25.4565 15.2022C25.9935 14.6007 26.3231 13.81 26.3231 12.9422C26.3231 11.0663 24.7972 9.54141 22.9223 9.54141C22.6096 9.54141 22.3083 9.58673 22.0206 9.66602C21.5618 8.30212 20.2839 7.35623 18.8045 7.35623C18.4352 7.35623 18.0817 7.4174 17.7475 7.52615C17.3182 6.12261 16.0121 5.12231 14.4998 5.12231C12.9876 5.12231 11.6814 6.12258 11.2521 7.52615C10.918 7.4174 10.5634 7.35623 10.1952 7.35623C8.66594 7.35623 7.36094 8.36102 6.93852 9.77593C6.55563 9.6264 6.13989 9.54031 5.70376 9.54031C3.82781 9.54031 2.30293 11.0662 2.30293 12.9411C2.30293 13.8802 2.68582 14.7321 3.30433 15.3484C1.96647 16.2184 1.13272 17.7171 1.13272 19.337V23.4231C1.13272 23.6735 1.33549 23.8763 1.58585 23.8763L10.1953 23.8763ZM8.96049 13.9177C9.35358 14.0717 9.77046 14.1589 10.1953 14.1589C10.5011 14.1589 10.8013 14.1136 11.0947 14.0321C11.2646 14.5328 11.5467 14.9836 11.9137 15.3495C11.165 15.8367 10.5759 16.5209 10.2009 17.3138C9.78858 16.4325 9.11117 15.6928 8.23891 15.2011C8.56516 14.8352 8.81549 14.4002 8.96049 13.9177ZM11.8424 12.6149C11.8458 12.59 11.8492 12.5662 11.8537 12.5413C11.8707 12.4393 11.8911 12.3396 11.9205 12.2411C11.9217 12.2365 11.9228 12.2331 11.9239 12.2286C11.9568 12.1199 11.9964 12.0145 12.044 11.9114C12.0485 11.9012 12.0531 11.891 12.0587 11.882C12.104 11.7845 12.1562 11.6905 12.2139 11.5999C12.2162 11.5954 12.2196 11.5908 12.2219 11.5863C12.283 11.4911 12.351 11.4005 12.4258 11.3144C12.4314 11.3076 12.4371 11.3008 12.4439 11.2952C12.5141 11.2159 12.5889 11.1411 12.6682 11.0709C12.675 11.0641 12.6829 11.0573 12.6897 11.0505C12.7758 10.9768 12.8664 10.9077 12.9627 10.8454C12.9684 10.842 12.974 10.8386 12.9786 10.8352C13.0737 10.7752 13.1734 10.7208 13.2765 10.6733C13.281 10.671 13.2867 10.6687 13.2912 10.6665C13.5733 10.5396 13.8735 10.4682 14.176 10.4512H14.1827C14.5883 10.4308 14.995 10.5079 15.3654 10.68C15.3677 10.6812 15.3699 10.6823 15.3722 10.6834C15.4628 10.7265 15.5512 10.7741 15.6361 10.8273C15.6361 10.8273 15.6373 10.8284 15.6384 10.8284C15.7245 10.8828 15.8072 10.9417 15.8854 11.0052C15.8944 11.0131 15.9046 11.0222 15.9103 11.0267C15.9114 11.0267 15.9114 11.0278 15.9125 11.0278C15.9828 11.0867 16.0496 11.1479 16.1119 11.2125C16.1278 11.2295 16.1436 11.2465 16.1595 11.2646C16.2071 11.3167 16.2513 11.3699 16.2943 11.4254C16.3147 11.4515 16.334 11.4775 16.3532 11.5047C16.3917 11.5602 16.428 11.6169 16.462 11.6747C16.4756 11.6984 16.4914 11.7211 16.505 11.7449C16.5481 11.8231 16.5866 11.9046 16.6206 11.9873C16.633 12.0179 16.6432 12.0496 16.6545 12.0813C16.6761 12.1402 16.6953 12.1992 16.7134 12.2592C16.7225 12.2932 16.7316 12.3283 16.7406 12.3634C16.7554 12.4268 16.7678 12.4903 16.778 12.5549C16.7825 12.5854 16.7882 12.616 16.7916 12.6477C16.8029 12.744 16.8097 12.8403 16.8097 12.9389C16.8097 13.0284 16.8041 13.1156 16.795 13.2028V13.204C16.718 13.9233 16.334 14.5497 15.7777 14.9553C14.9621 15.5489 13.8282 15.5829 12.9797 15.0425C12.3986 14.6721 11.9817 14.0683 11.8594 13.3637V13.3614C11.8333 13.2096 11.8208 13.0703 11.8208 12.9389C11.8186 12.8324 11.8276 12.7237 11.8424 12.6149ZM20.5221 15.3495C19.7733 15.8366 19.1842 16.5209 18.8093 17.3138C18.3969 16.4325 17.7195 15.6928 16.8472 15.2011C17.1746 14.8341 17.425 14.3991 17.57 13.9165C17.9631 14.0706 18.38 14.1578 18.8047 14.1578C19.1106 14.1578 19.4108 14.1125 19.7031 14.0309C19.8741 14.5339 20.155 14.9836 20.5221 15.3495ZM10.6484 19.337C10.6484 17.9108 11.4459 16.6002 12.7 15.9353C12.8257 16.0033 12.9582 16.0611 13.0919 16.1132C13.1032 16.1177 13.1146 16.1222 13.1259 16.1256C13.4952 16.2638 13.8939 16.3431 14.3119 16.3431C14.8058 16.3431 15.2748 16.2344 15.6997 16.0441C15.7019 16.043 15.7031 16.0418 15.7042 16.0418C15.8288 15.9852 15.9477 15.9218 16.0633 15.8515C16.0735 15.8459 16.0848 15.8413 16.095 15.8357C17.4725 16.461 18.3504 17.8113 18.3504 19.3371V22.97H10.6474L10.6484 19.337ZM26.9609 19.337V22.9699H19.258V19.337C19.258 17.9108 20.0555 16.6002 21.3095 15.9362C21.4352 16.0042 21.5678 16.0619 21.7014 16.1141C21.7128 16.1186 21.7241 16.1231 21.7366 16.1265C22.1058 16.2647 22.5046 16.344 22.9215 16.344C23.4154 16.344 23.8844 16.2353 24.308 16.045C24.3114 16.0427 24.3148 16.0416 24.3193 16.0393C24.4417 15.9838 24.5595 15.9204 24.6739 15.8513C24.6841 15.8445 24.6954 15.8411 24.7056 15.8343C26.0831 16.4607 26.9609 17.8112 26.9609 19.337ZM25.4169 12.9422C25.4169 13.7715 25.0091 14.5044 24.3849 14.9586C23.5693 15.5522 22.4342 15.5862 21.5846 15.0447C21.0046 14.6743 20.5878 14.0716 20.4654 13.367V13.3648C20.4393 13.2118 20.4269 13.0736 20.4269 12.9422C20.4269 12.8312 20.4359 12.7225 20.4507 12.6149C20.4541 12.5899 20.4575 12.5661 20.462 12.5424C20.479 12.4404 20.4994 12.3396 20.5288 12.241C20.53 12.2376 20.5311 12.2342 20.5311 12.2297C20.564 12.1209 20.6047 12.0145 20.6512 11.9114C20.6557 11.9023 20.6602 11.8932 20.6648 11.8842C20.7112 11.7856 20.7633 11.6905 20.8222 11.5987C20.8245 11.5953 20.8268 11.5919 20.829 11.5885C20.8913 11.4933 20.9593 11.4016 21.0341 11.3155C21.0386 11.3098 21.0443 11.3042 21.0499 11.2985C21.1202 11.2181 21.1972 11.1422 21.2776 11.0697C21.2844 11.064 21.2901 11.0583 21.2958 11.0527C21.3818 10.9779 21.4747 10.9088 21.571 10.8465C21.5756 10.8442 21.5801 10.8408 21.5846 10.8386C21.6798 10.7774 21.7817 10.723 21.886 10.6743C22.202 10.5293 22.5521 10.4455 22.9225 10.4455C24.2977 10.4478 25.4169 11.567 25.4169 12.9422ZM21.1858 10.0208C21.1745 10.0276 21.1632 10.0366 21.1518 10.0446C21.0487 10.108 20.9491 10.176 20.8539 10.2496C20.8392 10.2609 20.8233 10.2723 20.8086 10.2836C20.6999 10.3708 20.5956 10.4637 20.4971 10.5634C20.4948 10.5657 20.4926 10.5691 20.4903 10.5713C20.3985 10.6654 20.3136 10.7662 20.2331 10.8704C20.2184 10.8896 20.2037 10.9089 20.1901 10.9282C20.1176 11.0267 20.0485 11.1298 19.9862 11.2363C19.9794 11.2476 19.9726 11.2578 19.9669 11.268C19.8321 11.5059 19.7256 11.7596 19.6509 12.0281C19.643 12.0564 19.6362 12.0848 19.6282 12.1142C19.6022 12.2184 19.5807 12.3226 19.5648 12.4303C19.5591 12.4642 19.5535 12.4982 19.5489 12.5322C19.5331 12.667 19.5217 12.8029 19.5217 12.9423C19.5217 13.008 19.524 13.076 19.5285 13.1439C18.9338 13.3263 18.2757 13.2731 17.7138 12.9989V12.9423C17.7138 12.8154 17.7059 12.6908 17.6923 12.5685C17.6877 12.5243 17.6787 12.4812 17.6719 12.4382C17.6605 12.3612 17.6481 12.2841 17.6311 12.2082C17.6198 12.1538 17.6039 12.1017 17.5903 12.0485C17.5733 11.9862 17.5552 11.9239 17.5348 11.8627C17.5155 11.8049 17.494 11.7483 17.4725 11.6928C17.451 11.6396 17.4283 11.5863 17.4045 11.5342C17.3773 11.4753 17.3513 11.4175 17.3207 11.3609C17.2958 11.3133 17.2675 11.2669 17.2403 11.2204C17.2074 11.1649 17.1757 11.1083 17.1394 11.0539C17.1009 10.9961 17.0579 10.9417 17.016 10.8862C16.9684 10.8251 16.9208 10.7639 16.8687 10.7061C16.8109 10.6393 16.7509 10.5747 16.6875 10.5124C16.6614 10.4875 16.6331 10.4637 16.607 10.4388C16.5391 10.3765 16.4688 10.3164 16.3952 10.2586C16.3861 10.2519 16.3771 10.2428 16.368 10.2349C16.3714 10.2201 16.3737 10.2054 16.3771 10.1895C16.4043 10.0695 16.4394 9.95166 16.4836 9.83839C16.496 9.80667 16.513 9.77608 16.5266 9.7455C16.5617 9.6662 16.6002 9.58917 16.6433 9.5144C16.6705 9.46795 16.6977 9.42264 16.7271 9.37846C16.7656 9.31956 16.8098 9.26292 16.8528 9.20741C16.9095 9.13717 16.9695 9.06921 17.033 9.00464C17.0771 8.95932 17.1213 8.91514 17.1689 8.87323C17.2187 8.83018 17.2709 8.7894 17.3241 8.75089C17.3671 8.71917 17.4113 8.68971 17.4566 8.66026C17.5121 8.62514 17.5665 8.58889 17.6254 8.55717C17.9777 8.36913 18.3776 8.25926 18.8036 8.25926C19.9126 8.26266 20.8686 8.9854 21.1858 10.0208ZM14.4999 6.0298C15.6565 6.0298 16.65 6.8273 16.9196 7.9284C16.2716 8.35888 15.7777 9.0057 15.5477 9.77602C15.5262 9.76696 15.5035 9.7613 15.4809 9.75337C15.4118 9.72845 15.3427 9.70352 15.2702 9.682C15.2317 9.67067 15.192 9.66161 15.1535 9.65255C15.0901 9.63669 15.0266 9.6197 14.9609 9.60724C14.9066 9.59591 14.8499 9.59024 14.7944 9.58231C14.7434 9.57552 14.6925 9.56532 14.6415 9.56079C14.5316 9.54946 14.4217 9.5438 14.3107 9.5438C14.1702 9.5438 14.032 9.55513 13.8961 9.57212C13.8598 9.57665 13.8236 9.58345 13.7873 9.58798C13.6763 9.60497 13.5676 9.62763 13.46 9.65595C13.443 9.66048 13.426 9.66161 13.409 9.66614C13.4079 9.66388 13.4067 9.66161 13.4067 9.66048C13.162 8.94 12.6885 8.33735 12.0768 7.93069C12.3498 6.82732 13.3433 6.0298 14.4999 6.0298ZM7.75621 10.2336C7.99749 9.0929 9.00457 8.26254 10.1952 8.26254C10.6086 8.26254 10.9995 8.36336 11.345 8.54235C11.3518 8.54688 11.3563 8.55254 11.3631 8.55594C11.4378 8.59559 11.5081 8.6409 11.5783 8.68734C11.5896 8.69414 11.601 8.70094 11.6112 8.70774C11.6769 8.75418 11.7403 8.80402 11.8015 8.85613C11.8207 8.87199 11.84 8.88899 11.8581 8.90598C12.0382 9.0691 12.1934 9.25827 12.3192 9.46446C12.3396 9.49845 12.3622 9.53243 12.3815 9.56868C12.4109 9.62192 12.437 9.6763 12.4619 9.73181C12.4925 9.79978 12.5197 9.86888 12.5446 9.94024C12.5537 9.96743 12.565 9.99462 12.574 10.0218C12.5627 10.0286 12.5525 10.0377 12.5423 10.0445C12.4404 10.1079 12.3407 10.1747 12.2455 10.2484C12.2297 10.2608 12.2138 10.2722 12.198 10.2846C12.0892 10.3718 11.985 10.4636 11.8876 10.5633C11.8842 10.5667 11.8819 10.5701 11.8785 10.5735C11.7879 10.6664 11.7029 10.7661 11.6236 10.8703C11.6089 10.8895 11.5942 10.9099 11.5794 10.9292C11.5069 11.0277 11.439 11.1297 11.3767 11.2362C11.3699 11.2475 11.3631 11.2577 11.3563 11.269C11.2215 11.5058 11.1161 11.7607 11.0402 12.0291C11.0323 12.0575 11.0255 12.0869 11.0176 12.1152C10.9915 12.2183 10.97 12.3237 10.9541 12.4301C10.9485 12.4641 10.9428 12.4981 10.9383 12.5321C10.9224 12.6669 10.9111 12.8028 10.9111 12.9422C10.9111 13.0079 10.9134 13.0759 10.9179 13.1438C10.3232 13.3273 9.66501 13.273 9.10314 12.9988V12.9422C9.10314 12.8153 9.09521 12.6907 9.08161 12.5683C9.07708 12.5242 9.06802 12.4811 9.06122 12.4381C9.04989 12.361 9.03743 12.284 9.02044 12.2081C9.00911 12.1549 8.99325 12.1016 8.97966 12.0495C8.96267 11.9861 8.94455 11.9249 8.92415 11.8626C8.90489 11.806 8.8845 11.7493 8.86185 11.6927C8.84033 11.6383 8.81767 11.5862 8.79388 11.5341C8.76782 11.4763 8.74064 11.4185 8.71118 11.3619C8.68513 11.3132 8.65681 11.2667 8.62962 11.2192C8.59677 11.1637 8.56505 11.1082 8.52993 11.0549C8.48915 10.9949 8.44497 10.9382 8.40079 10.8805C8.35661 10.8227 8.3113 10.766 8.26259 10.7105C8.20368 10.6426 8.14251 10.5757 8.07794 10.5134C8.05302 10.4885 8.02583 10.4658 7.99978 10.4421C7.93068 10.3786 7.85931 10.3174 7.78568 10.2608C7.77548 10.2517 7.7664 10.2427 7.75621 10.2336ZM3.20901 12.9422C3.20901 11.5669 4.32823 10.4477 5.70347 10.4477C6.19058 10.4477 6.64484 10.5905 7.02886 10.8329C7.20331 10.9428 7.36076 11.0719 7.50011 11.2158C7.51597 11.2327 7.53183 11.2509 7.54768 11.269C7.59526 11.32 7.63831 11.3732 7.68136 11.4287C7.70175 11.4548 7.72214 11.4808 7.7414 11.508C7.77991 11.5624 7.81616 11.619 7.85015 11.6768C7.86487 11.7006 7.88073 11.7244 7.89432 11.7493C7.93737 11.8275 7.97589 11.909 8.00987 11.9917C8.02233 12.0223 8.03253 12.054 8.04386 12.0858C8.06538 12.1447 8.08577 12.2036 8.10276 12.2636C8.11182 12.2976 8.12089 12.3327 8.12995 12.3678C8.14468 12.4313 8.15714 12.4947 8.16733 12.5593C8.17186 12.5899 8.17753 12.6204 8.18093 12.6522C8.19226 12.7485 8.19905 12.8447 8.19905 12.9433C8.19905 13.0328 8.19452 13.12 8.18433 13.2072C8.10843 13.9277 7.72328 14.5553 7.16593 14.9608C6.35031 15.5533 5.21748 15.5861 4.3679 15.0469C3.67236 14.6029 3.20901 13.8269 3.20901 12.9422ZM2.0388 19.337C2.0388 17.9108 2.8363 16.6001 4.09032 15.9353C4.21606 16.0032 4.34746 16.061 4.48228 16.112C4.49361 16.1165 4.50607 16.1211 4.5174 16.1256C4.88668 16.2638 5.28543 16.3431 5.70231 16.3431C6.34347 16.3431 6.94159 16.1618 7.45365 15.8515C7.46384 15.8447 7.47517 15.8413 7.48537 15.8345C8.86287 16.4598 9.74078 17.8101 9.74078 19.3359V22.9688H2.0378L2.0388 19.337Z" fill="white"/>
  </svg>
  