<svg width="22" height="22" viewBox="0 0 22 22" fill="none" xmlns="http://www.w3.org/2000/svg">
  <path d="M11 0.439941C9.48066 0.439941 7.9561 1.02259 6.79934 2.17931C6.00958 2.96906 5.50341 3.93156 5.25248 4.94295C2.89782 5.37608 1.09998 7.42565 1.09998 9.89977C1.09998 12.6867 3.37302 14.9598 6.15998 14.9598H16.5C18.9259 14.9598 20.9 12.9858 20.9 10.5598C20.9 8.27045 19.1357 6.40551 16.8986 6.20113C16.8548 4.74105 16.3125 3.29119 15.2005 2.17931C14.0438 1.02259 12.5193 0.439941 11 0.439941ZM11 1.75994C12.1834 1.75994 13.3606 2.20252 14.2657 3.10744C15.2677 4.10948 15.7077 5.45704 15.5995 6.76494C15.584 6.94971 15.6467 7.1319 15.7722 7.26769C15.8977 7.40347 16.0747 7.48081 16.2594 7.47995H16.5001C18.218 7.47995 19.5801 8.84206 19.5801 10.56C19.5801 12.2778 18.218 13.64 16.5001 13.64H6.16008C4.0864 13.64 2.42008 11.9736 2.42008 9.89995C2.42008 7.93198 3.92914 6.32495 5.85076 6.16677C6.1524 6.14271 6.39904 5.91584 6.44889 5.61677C6.601 4.69638 7.02468 3.81724 7.73453 3.10745C8.63946 2.20252 9.8166 1.75994 11 1.75994ZM6.96434 15.6681C6.75293 15.6827 6.55613 15.8005 6.44184 15.9981L3.80184 20.5699C3.61965 20.8853 3.72707 21.2884 4.04248 21.4706C4.35788 21.6528 4.76091 21.5453 4.94311 21.2299L7.58311 16.6581C7.7653 16.3427 7.65788 15.9397 7.34248 15.7575C7.22388 15.6887 7.09154 15.6595 6.96434 15.6681ZM11.3918 15.6681C11.1804 15.6827 10.9836 15.8005 10.8693 15.9981L8.22934 20.5699C8.04715 20.8853 8.15458 21.2884 8.46998 21.4706C8.78538 21.6528 9.18841 21.5453 9.37061 21.2299L12.0106 16.6581C12.1928 16.3427 12.0854 15.9397 11.77 15.7575C11.6514 15.6887 11.519 15.6595 11.3918 15.6681ZM15.7918 15.6681C15.5804 15.6827 15.3836 15.8005 15.2693 15.9981L12.6293 20.5699C12.4472 20.8853 12.5546 21.2884 12.87 21.4706C13.1854 21.6528 13.5884 21.5453 13.7706 21.2299L16.4106 16.6581C16.5928 16.3427 16.4854 15.9397 16.17 15.7575C16.0514 15.6887 15.919 15.6595 15.7918 15.6681Z" fill="white"/>
  </svg>
  