<svg width="22" height="22" viewBox="0 0 22 22" fill="none" xmlns="http://www.w3.org/2000/svg">
  <g clip-path="url(#clip0_5701_616)">
  <path d="M8.93752 0.65308C6.24604 0.650502 3.7211 1.95676 2.16658 4.15416C0.612829 6.35159 0.222681 9.16774 1.12158 11.7046C2.02133 14.2414 4.09664 16.1835 6.6878 16.9124C9.27874 17.6412 12.0624 17.0654 14.1524 15.369L19.8792 21.0958L21.0961 19.8789L15.3693 14.1521C16.6927 12.5245 17.3484 10.4541 17.204 8.36083C17.0596 6.26752 16.1264 4.3071 14.5915 2.87622C13.0567 1.44537 11.0363 0.650484 8.93774 0.653124L8.93752 0.65308ZM8.93752 15.5031C7.19642 15.5031 5.52576 14.8113 4.29508 13.5798C3.06359 12.3492 2.37179 10.6784 2.37179 8.93736C2.37179 7.19628 3.06359 5.5256 4.29508 4.29492C5.52572 3.06342 7.19644 2.37163 8.93752 2.37163C10.6786 2.37163 12.3493 3.06342 13.58 4.29492C14.8115 5.52555 15.5032 7.19628 15.5032 8.93736C15.5015 10.6785 14.8089 12.3474 13.5782 13.578C12.3476 14.8087 10.6786 15.5014 8.93752 15.5031Z" fill="#F2F2F2"/>
  </g>
  <defs>
  <clipPath id="clip0_5701_616">
  <rect width="22" height="22" fill="white"/>
  </clipPath>
  </defs>
  </svg>
  