<svg width="26" height="27" viewBox="0 0 26 27" fill="none" xmlns="http://www.w3.org/2000/svg">
  <path d="M15.2599 3.24573C15.4691 3.38953 15.6646 3.55775 15.8465 3.75173C16.2963 4.23197 16.7133 5.07308 17.0332 5.98202L20.9801 4.96862L21.4709 3.28779L22.458 2.11161C22.6795 1.84842 23.0733 1.81315 23.3385 2.03156C23.6037 2.25134 23.6393 2.64204 23.4192 2.90522L22.5988 3.88198L21.9836 5.99151L17.3857 7.17176C17.4882 7.59094 17.5634 7.99658 17.6071 8.36152L19.8972 8.31268C20.7202 8.29369 21.5159 8.59892 22.1134 9.15921L23.6611 10.6121L25.3413 11.2714C25.6613 11.3976 25.8185 11.7585 25.6927 12.0773C25.5656 12.3947 25.2019 12.5521 24.8806 12.4259L22.9775 11.6784L21.2548 10.0614C20.8953 9.72357 20.4181 9.54179 19.9245 9.55266L17.5921 9.60285C17.5743 9.69781 17.5524 9.79278 17.5251 9.88503C17.5019 9.96507 17.4636 10.037 17.4144 10.098C17.5415 10.2201 17.655 10.349 17.7534 10.4819C18.1567 11.0314 18.4384 11.7382 18.623 12.5969L22.1202 14.2018L22.3321 19.2146C22.3335 19.2458 22.3417 19.2743 22.3554 19.3014L24.3323 23.0689C24.4909 23.3728 24.372 23.7472 24.0657 23.9059C23.7608 24.0633 23.3821 23.9453 23.2236 23.6414L21.2466 19.8739C21.1482 19.6867 21.0921 19.4792 21.0839 19.2675L20.9034 15.0104L18.8363 14.0621C18.8458 14.1707 18.8554 14.2819 18.8636 14.3945C18.9251 15.2709 18.9279 16.0631 18.8978 17.3139C18.88 18.0153 18.88 18.0641 18.88 18.269C18.88 21.8586 16.2072 26.1307 13.027 26.1307H12.3037C9.12367 26.1307 6.45209 21.8586 6.45209 18.269C6.45209 18.0641 6.45072 18.0153 6.43432 17.3139C6.40424 16.0631 6.40697 15.2709 6.46849 14.3945C6.47533 14.286 6.4849 14.1788 6.4931 14.073L4.4519 15.0104L4.27144 19.2675C4.26187 19.4792 4.20718 19.6867 4.10738 19.8739L2.1318 23.6414C1.97184 23.9453 1.59448 24.0633 1.28823 23.9059C0.98198 23.7472 0.86305 23.3727 1.023 23.0689L2.99857 19.3014C3.01361 19.2743 3.02181 19.2458 3.02181 19.2146L3.2351 14.2018L6.7064 12.6091C6.89097 11.7449 7.1726 11.0341 7.57867 10.4819C7.75777 10.2377 7.98883 10.0112 8.26089 9.80228C8.22944 9.73852 8.2021 9.67204 8.17886 9.60285L5.8109 9.55266C5.31873 9.54181 4.84021 9.7236 4.48198 10.0614L2.75932 11.6784L0.854827 12.4259C0.534906 12.5521 0.171242 12.3947 0.0440871 12.0773C-0.0830609 11.7585 0.0741656 11.3976 0.395452 11.2715L2.07573 10.6122L3.6234 9.15921C4.22085 8.59892 5.01657 8.29368 5.83823 8.31268L8.12279 8.36152C8.16791 7.98575 8.24857 7.56653 8.35931 7.13241L3.91606 5.99148L3.30083 3.88195L2.4805 2.90519C2.26038 2.642 2.29593 2.2513 2.56116 2.03153C2.8264 1.81312 3.22014 1.84839 3.44162 2.11157L4.42873 3.28775L4.91953 4.96859L8.72438 5.94535C9.03747 5.07982 9.4408 4.27942 9.8728 3.80595C10.0683 3.5916 10.2747 3.40847 10.4935 3.25243L10.1804 2.85631C9.47631 1.97043 8.45501 1.38979 7.32847 1.23514C6.98667 1.18766 6.7474 0.87427 6.79528 0.535137C6.84176 0.195984 7.1576 -0.0414399 7.49937 0.00606993C8.94585 0.204135 10.2584 0.951647 11.1621 2.08983L11.6529 2.70843C12.0193 2.61076 12.4117 2.56327 12.8314 2.56327C13.2771 2.56327 13.6969 2.61211 14.0893 2.71522L14.5856 2.08981C15.4893 0.951622 16.8018 0.204107 18.2483 0.00604575C18.5901 -0.0414363 18.9059 0.195974 18.9524 0.535113C19.0003 0.874267 18.761 1.18764 18.4192 1.23512C17.2927 1.38977 16.2714 1.97041 15.5673 2.85629L15.2599 3.24573ZM9.63404 10.4017C9.57388 10.4519 9.50416 10.4899 9.4317 10.5143C9.06255 10.7287 8.76999 10.9661 8.58813 11.213C8.10278 11.8723 7.82114 12.9901 7.71586 14.4797C7.65707 15.3072 7.65433 16.0696 7.68441 17.2838C7.70082 18.0015 7.70218 18.0489 7.70218 18.2687C7.70218 21.2614 9.97172 24.8888 12.304 24.8888H13.0272C15.3597 24.8888 17.629 21.2613 17.629 18.2687C17.629 18.0489 17.6304 18.0014 17.6482 17.2838C17.6769 16.0696 17.6741 15.3072 17.6154 14.4797C17.5114 12.9901 17.2284 11.8723 16.7431 11.213C16.2345 10.5211 14.8687 9.91468 13.3798 9.64202L13.2444 9.6176L13.2362 9.61217C13.2144 9.60946 13.1884 9.6081 13.161 9.60539C13.0284 9.59725 12.8507 9.59182 12.6661 9.59182C12.4815 9.59182 12.3038 9.59725 12.1712 9.60539C12.1425 9.6081 12.1179 9.60946 12.0946 9.61217L12.0878 9.6176L11.9511 9.64202C11.0897 9.79939 10.2708 10.0694 9.63367 10.4017L9.63404 10.4017ZM16.3687 9.349C16.3892 9.2364 16.3988 9.11838 16.3988 8.99493C16.3988 7.84046 15.666 5.37822 14.9318 4.59681C14.4177 4.0501 13.726 3.80317 12.8318 3.80317C11.9691 3.80317 11.3348 4.05279 10.8002 4.63883C10.066 5.44194 9.3332 7.854 9.3332 8.97201C9.3332 9.04527 9.3373 9.10632 9.34823 9.15515C10.051 8.82685 10.8713 8.57858 11.7244 8.42257L11.7272 8.43343C12.2057 8.3249 13.1258 8.3249 13.6043 8.43343L13.607 8.42257C14.6215 8.60843 15.5881 8.92436 16.3687 9.349Z" fill="#F2F2F2"/>
  </svg>
  