<svg width="26" height="26" viewBox="0 0 26 26" fill="none" xmlns="http://www.w3.org/2000/svg">
  <path d="M13 6.09388C11.1688 6.09388 9.41173 6.82107 8.11693 8.11699C6.82099 9.41192 6.09382 11.1689 6.09382 13.0001C6.09382 14.8312 6.82101 16.5883 8.11693 17.8831C9.41186 19.1791 11.1688 19.9062 13 19.9062C14.8312 19.9062 16.5882 19.179 17.883 17.8831C19.179 16.5882 19.9062 14.8312 19.9062 13.0001C19.9041 11.1689 19.1759 9.41387 17.881 8.11907C16.5861 6.82414 14.8312 6.09593 13 6.09388ZM13 18.2814C11.5994 18.2814 10.2557 17.7248 9.26561 16.7346C8.27537 15.7444 7.71882 14.4007 7.71882 13.0002C7.71882 11.5997 8.27537 10.2559 9.26561 9.26583C10.2558 8.27559 11.5995 7.71904 13 7.71904C14.4005 7.71904 15.7443 8.27559 16.7344 9.26583C17.7246 10.2561 18.2812 11.5997 18.2812 13.0002C18.2791 14.4008 17.7226 15.7424 16.7323 16.7325C15.7421 17.7227 14.4004 18.2794 13 18.2814ZM12.1875 4.0625V2.4375C12.1875 1.98858 12.5511 1.625 13 1.625C13.4489 1.625 13.8125 1.98858 13.8125 2.4375V4.0625C13.8125 4.51142 13.4489 4.875 13 4.875C12.5511 4.875 12.1875 4.51142 12.1875 4.0625ZM4.87499 13C4.87499 13.2153 4.78968 13.4225 4.63733 13.5748C4.48499 13.7272 4.27781 13.8125 4.0625 13.8125H2.4375C1.98858 13.8125 1.625 13.4489 1.625 13C1.625 12.5511 1.98858 12.1875 2.4375 12.1875H4.0625C4.27781 12.1875 4.485 12.2728 4.63733 12.4251C4.78968 12.5775 4.87499 12.7847 4.87499 13ZM7.42928 18.4743C7.74412 18.7942 7.74006 19.3081 7.42014 19.623L6.03889 20.9829C5.71592 21.2805 5.21521 21.2683 4.90747 20.9545C4.59974 20.6417 4.5967 20.1399 4.90138 19.8231L6.28263 18.4641C6.60155 18.1503 7.11544 18.1554 7.42928 18.4743ZM20.9818 19.9652C21.1433 20.1166 21.2357 20.3268 21.2377 20.5482C21.2408 20.7696 21.1524 20.9819 20.995 21.1373C20.8365 21.2916 20.6233 21.3759 20.4019 21.3688C20.1805 21.3627 19.9723 21.2663 19.823 21.1027L18.464 19.7215C18.3005 19.5702 18.2061 19.3589 18.203 19.1365C18.2 18.9141 18.2873 18.7008 18.4458 18.5444C18.6042 18.389 18.8205 18.3047 19.0419 18.3118C19.2644 18.3199 19.4736 18.4174 19.6219 18.584L20.9818 19.9652ZM24.375 13.0997C24.371 13.5455 24.0084 13.9051 23.5625 13.9051H23.5544L21.9294 13.8909V13.8919C21.4805 13.8868 21.121 13.5202 21.125 13.0713C21.1179 12.8539 21.2032 12.6427 21.3586 12.4893C21.514 12.337 21.7273 12.2557 21.9446 12.2669L23.5696 12.2811V12.2801C23.7849 12.2821 23.9911 12.3695 24.1424 12.5238C24.2928 12.6772 24.3771 12.8844 24.375 13.0997ZM18.5718 7.5258C18.257 7.20587 18.2611 6.69198 18.581 6.37712L19.9622 5.01719C20.2852 4.71962 20.7859 4.73179 21.0936 5.04563C21.4014 5.35844 21.4044 5.86016 21.0997 6.17705L19.7185 7.53596C19.5651 7.68729 19.358 7.77159 19.1416 7.76956C18.9263 7.76753 18.7201 7.68018 18.5688 7.52581L18.5718 7.5258ZM5.02454 6.02776C4.8661 5.87542 4.77571 5.66621 4.7747 5.4458C4.77368 5.22643 4.86102 5.01519 5.01845 4.86182C5.17485 4.70744 5.38713 4.62416 5.6075 4.62924C5.82688 4.63432 6.03507 4.72877 6.18439 4.89025L7.54229 6.2715C7.69667 6.42486 7.783 6.63306 7.78198 6.85143C7.78198 7.06878 7.69362 7.27698 7.53823 7.42934C7.38386 7.58168 7.17363 7.66496 6.95627 7.6609C6.73893 7.65785 6.53175 7.56644 6.38144 7.40902L5.02454 6.02776ZM13.8128 21.9374V23.5624C13.8128 24.0113 13.4492 24.3749 13.0003 24.3749C12.5514 24.3749 12.1878 24.0113 12.1878 23.5624V21.9374C12.1878 21.4885 12.5514 21.1249 13.0003 21.1249C13.4492 21.1249 13.8128 21.4885 13.8128 21.9374Z" fill="white"/>
  </svg>
  