<svg width="35" height="35" viewBox="0 0 35 35" fill="none" xmlns="http://www.w3.org/2000/svg">
  <path d="M17.2526 2.84101C16.9709 2.84101 16.7413 3.0707 16.7399 3.35369V21.3472H12.1885V10.5752C12.1871 10.2922 11.9574 10.0639 11.6744 10.0626H3.1036H3.10497C2.8206 10.0626 2.58816 10.2922 2.58816 10.5752V31.1307H1.54635C1.26198 31.1294 1.03091 31.3591 1.02954 31.6434C1.02954 31.7801 1.08286 31.9114 1.17993 32.0085C1.27701 32.1056 1.40962 32.1602 1.54635 32.1589H33.458C33.5947 32.1589 33.7259 32.1042 33.8216 32.0071C33.9173 31.91 33.9707 31.7788 33.9707 31.6434C33.9693 31.3604 33.741 31.1307 33.458 31.1307H32.4121V13.1439C32.4121 12.8609 32.1824 12.6326 31.8994 12.6312H26.9378V3.35201V3.35338C26.9364 3.07037 26.7081 2.8407 26.4251 2.8407L17.2526 2.84101ZM17.7694 3.8705H25.9083V12.6328H23.3284V12.6314C23.044 12.63 22.8129 12.8597 22.8116 13.1441V31.1295H20.8169V21.8587V21.8601C20.8155 21.5771 20.5872 21.3488 20.3042 21.3474H17.7694L17.7694 3.8705ZM20.3876 5.48106C20.2508 5.48106 20.1196 5.53438 20.0225 5.63008C19.9268 5.72715 19.8721 5.85704 19.8707 5.99377V7.24337C19.8707 7.38009 19.9254 7.51134 20.0225 7.60706C20.1196 7.70413 20.2508 7.75745 20.3876 7.75745C20.6706 7.75608 20.9002 7.52639 20.9002 7.24337V5.99376C20.8989 5.71076 20.6705 5.48242 20.3876 5.48106ZM23.2901 5.48106C23.1534 5.48106 23.0221 5.53438 22.9251 5.63008C22.828 5.72715 22.7733 5.85704 22.7733 5.99377V7.24337C22.7733 7.38009 22.828 7.51134 22.9251 7.60706C23.0221 7.70413 23.1534 7.75745 23.2901 7.75745C23.5731 7.75608 23.8028 7.52639 23.8042 7.24337V5.99376C23.8028 5.71076 23.5731 5.48242 23.2901 5.48106ZM20.3876 9.08641C20.2508 9.08504 20.1182 9.13973 20.0211 9.2368C19.9241 9.33387 19.8707 9.46512 19.8707 9.60322V10.8542V10.8528C19.8721 10.9895 19.9268 11.1208 20.0225 11.2165C20.1196 11.3122 20.2508 11.3669 20.3876 11.3655C20.6706 11.3655 20.8989 11.1358 20.9002 10.8528V9.60188V9.60324C20.9002 9.46653 20.8469 9.33528 20.7512 9.23819C20.6555 9.14112 20.5243 9.08641 20.3876 9.08641ZM23.2901 9.08641C23.152 9.08504 23.0208 9.13973 22.9237 9.2368C22.8266 9.33387 22.7719 9.46512 22.7733 9.60322V10.8542V10.8528C22.7733 10.9895 22.828 11.1208 22.9251 11.2165C23.0221 11.3122 23.1534 11.3669 23.2901 11.3655C23.5731 11.3655 23.8028 11.1358 23.8042 10.8528V9.60188V9.60324C23.8042 9.46653 23.7509 9.33528 23.6538 9.23819C23.5581 9.14112 23.4268 9.08641 23.2901 9.08641ZM3.61765 11.0948H11.1591V21.3502H8.0624V21.3474C7.77803 21.3461 7.54696 21.5758 7.54559 21.8601V31.1309H3.61754L3.61765 11.0948ZM20.3876 12.6958C20.2509 12.6958 20.1182 12.7491 20.0212 12.8462C19.9241 12.9432 19.8708 13.0759 19.8708 13.2126V14.4595C19.8708 14.5962 19.9241 14.7288 20.0212 14.8245C20.1182 14.9216 20.2509 14.9763 20.3876 14.9763C20.5243 14.9749 20.6556 14.9202 20.7513 14.8231C20.847 14.7274 20.9003 14.5962 20.9003 14.4595V13.2126C20.9003 13.0759 20.847 12.9446 20.7513 12.8475C20.6556 12.7518 20.5243 12.6971 20.3876 12.6958ZM5.93783 12.7532C5.80112 12.7532 5.66987 12.8065 5.57278 12.9036C5.47571 13.0007 5.42103 13.1333 5.42103 13.27V14.5196C5.42239 14.6563 5.47708 14.7862 5.57415 14.8833C5.67122 14.979 5.80111 15.0323 5.93784 15.0323C6.22084 15.0323 6.45052 14.8026 6.45192 14.5196V13.27C6.45192 13.1333 6.3986 13.0021 6.30289 12.905C6.20582 12.8079 6.07456 12.7532 5.93783 12.7532ZM8.84175 12.7532C8.70366 12.7532 8.57241 12.8065 8.47533 12.9036C8.37827 13.0007 8.32358 13.1333 8.32494 13.27V14.5196C8.32494 14.6563 8.37963 14.7862 8.4767 14.8833C8.57377 14.979 8.70502 15.0323 8.84175 15.0323C9.12339 15.031 9.35306 14.8026 9.35443 14.5196V13.27C9.35443 13.1333 9.30111 13.0021 9.20541 12.905C9.10834 12.8093 8.97848 12.7532 8.84175 12.7532ZM23.8424 13.6638H31.3839V31.1337H23.8424V13.6638ZM25.5487 15.9852L25.5473 15.9825C25.4106 15.9825 25.2793 16.0372 25.1836 16.1343C25.0865 16.2313 25.0332 16.3626 25.0332 16.4993C25.0346 16.7823 25.2643 17.012 25.5473 17.012H29.6776C29.8144 17.0134 29.9456 16.9587 30.0427 16.863C30.1384 16.7659 30.1931 16.636 30.1944 16.4993C30.1944 16.3612 30.1398 16.23 30.0427 16.1329C29.9456 16.0358 29.8144 15.9811 29.6776 15.9825L25.5487 15.9852ZM20.3876 16.3065C20.2509 16.3052 20.1196 16.3585 20.0225 16.4556C19.9268 16.5513 19.8721 16.6825 19.8708 16.8192V18.0689V18.0675C19.8708 18.2056 19.9241 18.3368 20.0212 18.4339C20.1182 18.531 20.2509 18.5857 20.3876 18.5843C20.5243 18.5843 20.6556 18.5296 20.7513 18.4325C20.847 18.3355 20.9003 18.2042 20.9003 18.0675V16.8179V16.8192C20.8989 16.5362 20.6706 16.3065 20.3876 16.3065ZM5.93783 16.3626C5.80112 16.3612 5.66987 16.4159 5.57278 16.513C5.47571 16.6101 5.42103 16.7413 5.42103 16.8794V18.1263V18.1249C5.42103 18.263 5.47571 18.3942 5.57278 18.4913C5.66985 18.5884 5.8011 18.6431 5.93783 18.6417C6.07455 18.6417 6.2058 18.587 6.30288 18.49C6.39859 18.3929 6.45191 18.2616 6.45191 18.1249V16.878V16.8794C6.45191 16.7427 6.39859 16.6114 6.30288 16.5143C6.20581 16.4173 6.07456 16.3626 5.93783 16.3626ZM8.84175 16.3626C8.70366 16.3612 8.57241 16.4159 8.47533 16.513C8.37827 16.6101 8.32358 16.7413 8.32494 16.8794V18.1263V18.1249C8.32358 18.263 8.37826 18.3942 8.47533 18.4913C8.5724 18.5884 8.70365 18.6431 8.84175 18.6417C9.12612 18.6403 9.35583 18.4093 9.35443 18.1249V16.878V16.8794C9.35443 16.7427 9.30111 16.6114 9.20541 16.5143C9.10834 16.4173 8.97848 16.3626 8.84175 16.3626ZM25.5473 19.9171V19.9144C25.2642 19.9158 25.0346 20.1441 25.0332 20.4271C25.0332 20.5638 25.0865 20.695 25.1836 20.7921C25.2793 20.8892 25.4105 20.9439 25.5472 20.9439H29.6776C29.8143 20.9439 29.9456 20.8906 30.0426 20.7935C30.1397 20.6964 30.1944 20.5638 30.1944 20.4271C30.193 20.1427 29.962 19.913 29.6776 19.9144L25.5473 19.9171ZM5.9378 19.9718C5.80108 19.9718 5.6712 20.0251 5.57411 20.1208C5.47705 20.2179 5.42236 20.3478 5.42099 20.4845V21.7341C5.42099 21.8708 5.47568 22.0035 5.57275 22.1005C5.66981 22.1976 5.80106 22.2509 5.9378 22.2509C6.07453 22.2509 6.20576 22.1962 6.30285 22.0992C6.39855 22.0021 6.45187 21.8709 6.45187 21.7341V20.4845C6.4505 20.2015 6.22082 19.9718 5.9378 19.9718ZM8.57512 22.3794H19.7874V31.1336L17.5302 31.1295V28.3487V28.35C17.5302 28.0657 17.3005 27.836 17.0175 27.836H11.3492C11.2125 27.836 11.0813 27.8893 10.9842 27.985C10.8871 28.0821 10.8324 28.2133 10.8324 28.35V31.1309H8.57519L8.57512 22.3794ZM5.9378 23.5812C5.80108 23.5798 5.66983 23.6345 5.57275 23.7302C5.47568 23.8273 5.42236 23.9572 5.42099 24.0939V25.3435C5.42236 25.4802 5.47705 25.6115 5.57412 25.7072C5.67119 25.8029 5.80107 25.8576 5.9378 25.8562C6.22081 25.8562 6.45048 25.6265 6.45188 25.3435V24.0939C6.45188 23.8109 6.22219 23.5812 5.9378 23.5812ZM11.1209 23.774C10.9842 23.7753 10.8543 23.83 10.7573 23.9257C10.6616 24.0228 10.6069 24.154 10.6082 24.2908V25.9437C10.6082 26.2267 10.8379 26.4564 11.1209 26.4564C11.2576 26.4578 11.3889 26.4031 11.486 26.3074C11.583 26.2117 11.6377 26.0804 11.6377 25.9437V24.2907C11.6391 24.154 11.5844 24.0228 11.4873 23.9257C11.3903 23.8286 11.259 23.774 11.1209 23.774ZM14.1835 23.774C14.0467 23.774 13.9141 23.8287 13.817 23.9257C13.72 24.0228 13.6666 24.154 13.6666 24.2908V25.9437C13.6666 26.0804 13.7213 26.2117 13.8184 26.3074C13.9155 26.4031 14.0467 26.4578 14.1835 26.4564C14.4665 26.4551 14.6948 26.2267 14.6961 25.9437V24.2908C14.6961 24.1554 14.6428 24.0242 14.5471 23.9271C14.45 23.83 14.3202 23.7753 14.1835 23.774ZM17.2419 23.774C17.1051 23.7753 16.9739 23.83 16.8782 23.9271C16.7825 24.0242 16.7278 24.1554 16.7291 24.2908V25.9437C16.7291 26.2267 16.9588 26.455 17.2418 26.4564C17.3785 26.4578 17.5084 26.4031 17.6055 26.3074C17.7026 26.2117 17.7573 26.0804 17.7586 25.9437V24.2907C17.7586 24.154 17.7039 24.0228 17.6069 23.9257C17.5098 23.8286 17.3786 23.774 17.2419 23.774ZM25.5488 23.8464L25.5474 23.8423C25.4107 23.8437 25.2794 23.8984 25.1837 23.9941C25.0866 24.0911 25.0333 24.2224 25.0333 24.3591C25.0347 24.6421 25.2644 24.8718 25.5474 24.8718H29.6777C29.9621 24.8732 30.1932 24.6435 30.1946 24.3591C30.1946 24.2224 30.1399 24.0912 30.0428 23.9941C29.9457 23.897 29.8145 23.8423 29.6777 23.8423L25.5488 23.8464ZM5.93794 27.1865C5.80122 27.1865 5.66997 27.2398 5.57289 27.3369C5.47582 27.4339 5.42113 27.5652 5.42113 27.7033V28.9542C5.4225 29.0896 5.47719 29.2208 5.57426 29.3166C5.67132 29.4136 5.80121 29.467 5.93794 29.467C6.22095 29.4656 6.45062 29.2373 6.45202 28.9543V27.7033C6.45202 27.5666 6.3987 27.4353 6.303 27.3383C6.20593 27.2412 6.07467 27.1865 5.93794 27.1865ZM25.5488 27.7798L25.5474 27.7757C25.2644 27.7757 25.0347 28.0054 25.0333 28.2884C25.0333 28.4251 25.0866 28.5564 25.1837 28.6535C25.2794 28.7505 25.4107 28.8038 25.5474 28.8052H29.6777C29.8145 28.8052 29.9457 28.7505 30.0428 28.6535C30.1399 28.5564 30.1945 28.4251 30.1945 28.2884C30.1932 28.004 29.9621 27.7743 29.6777 27.7757L25.5488 27.7798ZM11.8631 28.8708H13.6677V31.1349H11.8631V28.8708ZM14.6973 28.8708H16.5019V31.1349H14.6973V28.8708Z" fill="#F2F2F2"/>
  </svg>
  