<svg width="41" height="41" viewBox="0 0 41 41" fill="none" xmlns="http://www.w3.org/2000/svg">
  <circle cx="20.04" cy="20.8022" r="20" fill="#4393CF"/>
  <path d="M32.0399 18.077C32.0399 19.0802 31.6494 20.0228 30.9424 20.7332C30.2321 21.4401 29.2895 21.8307 28.2896 21.8307H9.42019C8.95225 21.8307 8.5752 21.4536 8.5752 20.9857C8.5752 20.5177 8.95225 20.144 9.42019 20.144H28.2896C28.8383 20.144 29.3568 19.9286 29.7473 19.538C30.1378 19.1475 30.3533 18.6291 30.3533 18.077C30.3533 17.5249 30.1378 17.0098 29.7473 16.6193C29.3568 16.2287 28.8383 16.0133 28.2896 16.0133C27.7409 16.0133 27.219 16.2287 26.8285 16.6193C26.438 17.0098 26.2259 17.5282 26.2259 18.077C26.2259 18.5449 25.8455 18.922 25.3809 18.922C24.9163 18.922 24.5359 18.5449 24.5359 18.077C24.5359 17.0771 24.9264 16.1345 25.6368 15.4241C26.3437 14.7172 27.2864 14.3267 28.2896 14.3267C29.2928 14.3267 30.2321 14.7172 30.9424 15.4241C31.6494 16.1345 32.0399 17.0771 32.0399 18.077Z" fill="white"/>
  <path d="M23.1726 14.9293C23.1726 15.9325 22.7821 16.8751 22.0751 17.5821C21.3648 18.2924 20.4221 18.683 19.4223 18.683H8.88167C8.41709 18.683 8.04004 18.3025 8.04004 17.838C8.04004 17.3734 8.41709 16.993 8.88167 16.993H19.4223C19.971 16.993 20.4895 16.7775 20.88 16.3903C21.2705 15.9998 21.486 15.4814 21.486 14.9293C21.486 14.3772 21.2705 13.8587 20.88 13.4716C20.4895 13.081 19.971 12.8656 19.4223 12.8656C18.8735 12.8656 18.3517 13.081 17.9612 13.4716C17.5707 13.8587 17.3552 14.3772 17.3552 14.9293C17.3552 15.3939 16.9782 15.7743 16.5136 15.7743C16.049 15.7743 15.6686 15.3939 15.6686 14.9293C15.6686 13.926 16.0591 12.9868 16.7661 12.2764C17.4764 11.5661 18.4191 11.179 19.4223 11.179C20.4255 11.179 21.3648 11.5661 22.0751 12.2764C22.7821 12.9868 23.1726 13.926 23.1726 14.9293Z" fill="white"/>
  <path d="M23.1726 26.6751C23.1726 27.6749 22.7821 28.6176 22.0751 29.3279C21.3648 30.0349 20.4221 30.4254 19.4223 30.4254C18.4224 30.4254 17.4764 30.0349 16.7661 29.3279C16.0591 28.6176 15.6686 27.6749 15.6686 26.6751C15.6686 26.2071 16.0456 25.8301 16.5136 25.8301C16.9815 25.8301 17.3552 26.2071 17.3552 26.6751C17.3552 27.2238 17.5707 27.7423 17.9612 28.1328C18.3517 28.5233 18.8702 28.7388 19.4223 28.7388C19.9744 28.7388 20.4895 28.5233 20.88 28.1328C21.2705 27.7423 21.486 27.2238 21.486 26.6751C21.486 26.1263 21.2705 25.6045 20.88 25.214C20.4895 24.8235 19.971 24.6114 19.4223 24.6114H8.88167C8.41709 24.6114 8.04004 24.231 8.04004 23.7664C8.04004 23.3018 8.41709 22.9214 8.88167 22.9214H19.4223C20.4221 22.9214 21.3648 23.3119 22.0751 24.0222C22.7821 24.7292 23.1726 25.6718 23.1726 26.6751Z" fill="white"/>
  </svg>
  