<svg width="41" height="41" viewBox="0 0 41 41" fill="none" xmlns="http://www.w3.org/2000/svg">
  <circle cx="20.04" cy="20.8022" r="20" fill="#E34053"/>
  <path d="M22.6177 16.1738H18.1988C17.3887 16.1738 16.7259 16.8367 16.7259 17.6468V23.5387C16.7259 24.3488 17.3887 25.0117 18.1988 25.0117H22.6177C23.4279 25.0117 24.0907 24.3488 24.0907 23.5387V17.6468C24.0907 16.8367 23.4279 16.1738 22.6177 16.1738ZM21.8813 22.8022H18.9353V18.3833H21.8813V22.8022ZM13.7799 22.0657V23.5387C13.7799 24.3488 13.1171 25.0117 12.3069 25.0117H7.88801C7.07788 25.0117 6.41504 24.3488 6.41504 23.5387V17.6468C6.41504 16.8367 7.07788 16.1738 7.88801 16.1738H12.3069C13.1171 16.1738 13.7799 16.8367 13.7799 17.6468V19.1198H11.5704V18.3833H8.6245V22.8022H11.5704V22.0657H13.7799ZM32.1921 25.7482H29.2461V27.2211H33.665V29.4306H27.0367V25.7482C27.0367 24.938 27.6995 24.2752 28.5096 24.2752H31.4556V22.8022H27.0367V20.5927H32.1921C33.0022 20.5927 33.665 21.2556 33.665 22.0657V24.2752C33.665 25.0853 33.0022 25.7482 32.1921 25.7482Z" fill="white"/>
  </svg>
  