<svg width="41" height="41" viewBox="0 0 41 41" fill="none" xmlns="http://www.w3.org/2000/svg">
  <circle cx="20.04" cy="20.8022" r="20" fill="#FF881B"/>
  <path d="M32.04 16.4385C32.04 17.6385 31.0582 18.6203 29.8582 18.6203C29.6619 18.6203 29.4764 18.5985 29.3019 18.544L25.4182 22.4167C25.4728 22.5913 25.4946 22.7876 25.4946 22.984C25.4946 24.184 24.5128 25.1658 23.3128 25.1658C22.1128 25.1658 21.1309 24.184 21.1309 22.984C21.1309 22.7876 21.1528 22.5913 21.2073 22.4167L18.4255 19.6349C18.2509 19.6894 18.0546 19.7113 17.8582 19.7113C17.6619 19.7113 17.4655 19.6894 17.2909 19.6349L12.3273 24.6094C12.3819 24.784 12.4037 24.9694 12.4037 25.1658C12.4037 26.3658 11.4219 27.3476 10.2219 27.3476C9.02186 27.3476 8.04004 26.3658 8.04004 25.1658C8.04004 23.9658 9.02186 22.984 10.2219 22.984C10.4182 22.984 10.6037 23.0058 10.7782 23.0603L15.7528 18.0967C15.6982 17.9222 15.6764 17.7258 15.6764 17.5294C15.6764 16.3294 16.6582 15.3476 17.8582 15.3476C19.0582 15.3476 20.04 16.3294 20.04 17.5294C20.04 17.7258 20.0182 17.9222 19.9637 18.0967L22.7455 20.8785C22.92 20.824 23.1164 20.8022 23.3128 20.8022C23.5091 20.8022 23.7055 20.824 23.88 20.8785L27.7528 16.9949C27.6982 16.8204 27.6764 16.6349 27.6764 16.4385C27.6764 15.2385 28.6582 14.2567 29.8582 14.2567C31.0582 14.2567 32.04 15.2385 32.04 16.4385Z" fill="white"/>
  </svg>
  