<svg width="41" height="41" viewBox="0 0 41 41" fill="none" xmlns="http://www.w3.org/2000/svg">
  <circle cx="20.04" cy="20.8022" r="20" fill="#AAAFC7"/>
  <path d="M26.96 11.8122C26.76 11.2222 26.2 10.8022 25.54 10.8022H14.54C13.88 10.8022 13.33 11.2222 13.12 11.8122L11.04 17.8022V25.8022C11.04 26.3522 11.49 26.8022 12.04 26.8022H13.04C13.59 26.8022 14.04 26.3522 14.04 25.8022V24.8022H26.04V25.8022C26.04 26.3522 26.49 26.8022 27.04 26.8022H28.04C28.59 26.8022 29.04 26.3522 29.04 25.8022V17.8022L26.96 11.8122ZM14.89 12.8022H25.18L26.26 15.9122H13.81L14.89 12.8022ZM27.04 22.8022H13.04V17.8022H27.04V22.8022Z" fill="white"/>
  <path d="M15.54 21.8022C16.3685 21.8022 17.04 21.1307 17.04 20.3022C17.04 19.4738 16.3685 18.8022 15.54 18.8022C14.7116 18.8022 14.04 19.4738 14.04 20.3022C14.04 21.1307 14.7116 21.8022 15.54 21.8022Z" fill="white"/>
  <path d="M24.54 21.8022C25.3685 21.8022 26.04 21.1307 26.04 20.3022C26.04 19.4738 25.3685 18.8022 24.54 18.8022C23.7116 18.8022 23.04 19.4738 23.04 20.3022C23.04 21.1307 23.7116 21.8022 24.54 21.8022Z" fill="white"/>
  <path d="M15.04 29.8022H19.04V27.8022L25.04 30.8022H21.04V32.8022L15.04 29.8022Z" fill="white"/>
  </svg>
  