<svg width="41" height="41" viewBox="0 0 41 41" fill="none" xmlns="http://www.w3.org/2000/svg">
  <circle cx="20.04" cy="20.8022" r="20" fill="#006A34"/>
  <path fill-rule="evenodd" clip-rule="evenodd" d="M9.85393 26.8344L9.27704 26.2575C8.95843 26.5761 8.95843 27.0927 9.27704 27.4113C9.59545 27.7297 10.1116 27.7299 10.4302 27.4119L10.43 27.4121C10.4286 27.4135 10.428 27.4141 10.4281 27.414L10.4289 27.4132L10.4297 27.4124M9.85393 26.8344C9.27704 26.2575 9.27737 26.2571 9.27771 26.2568L9.27846 26.2561L9.28019 26.2543L9.28456 26.25L9.297 26.2379C9.30693 26.2283 9.32016 26.2158 9.3367 26.2004C9.36978 26.1696 9.41614 26.1276 9.47599 26.0761C9.59567 25.9729 9.76936 25.8315 9.99871 25.6647C10.4574 25.331 11.1389 24.8961 12.0561 24.4645C13.8935 23.5998 16.6633 22.7551 20.46 22.7551C24.2567 22.7551 27.0264 23.5998 28.8638 24.4645C29.781 24.8961 30.4625 25.331 30.9212 25.6647C31.1506 25.8315 31.3242 25.9729 31.4439 26.0761C31.5038 26.1276 31.5501 26.1696 31.5832 26.2004C31.5998 26.2158 31.613 26.2283 31.6229 26.2379L31.6354 26.25L31.6397 26.2543L31.6415 26.2561L31.6422 26.2568C31.6425 26.2571 31.6429 26.2575 31.0779 26.8224L31.6429 26.2575C31.9615 26.5761 31.9615 27.0927 31.6429 27.4113C31.3243 27.7299 30.8077 27.7299 30.4891 27.4113L31.0658 26.8346C30.4891 27.4113 30.4894 27.4116 30.4897 27.4119L30.4902 27.4124L30.491 27.4132L30.4918 27.414C30.492 27.4141 30.4913 27.4135 30.4899 27.4121L30.4719 27.3951C30.4536 27.378 30.4226 27.3499 30.3789 27.3122C30.2914 27.2369 30.1528 27.1234 29.9615 26.9843C29.5789 26.706 28.9856 26.3251 28.1691 25.9409C26.5392 25.1739 24.0059 24.3868 20.46 24.3868C16.914 24.3868 14.3807 25.1739 12.7508 25.9409C11.9343 26.3251 11.341 26.706 10.9584 26.9843C10.7671 27.1234 10.6285 27.2369 10.541 27.3122C10.4973 27.3499 10.4664 27.378 10.4481 27.3951L10.43 27.4121" fill="white"/>
  <path fill-rule="evenodd" clip-rule="evenodd" d="M20.4604 22.7551C20.911 22.7551 21.2762 23.1204 21.2762 23.571V30.0978C21.2762 30.5483 20.911 30.9136 20.4604 30.9136C20.0098 30.9136 19.6445 30.5483 19.6445 30.0978V23.571C19.6445 23.1204 20.0098 22.7551 20.4604 22.7551Z" fill="white"/>
  <path fill-rule="evenodd" clip-rule="evenodd" d="M19.3681 23.008C19.7061 23.3059 19.7385 23.8215 19.4405 24.1595L13.7296 30.6373C13.4316 30.9753 12.9161 31.0077 12.5781 30.7097C12.2401 30.4118 12.2077 29.8962 12.5056 29.5582L18.2166 23.0804C18.5145 22.7424 19.0301 22.71 19.3681 23.008Z" fill="white"/>
  <path fill-rule="evenodd" clip-rule="evenodd" d="M21.5517 23.008C21.8897 22.71 22.4053 22.7424 22.7032 23.0804L28.4142 29.5582C28.7121 29.8962 28.6797 30.4118 28.3417 30.7097C28.0037 31.0077 27.4882 30.9753 27.1902 30.6373L21.4793 24.1595C21.1813 23.8215 21.2137 23.3059 21.5517 23.008Z" fill="white"/>
  <path fill-rule="evenodd" clip-rule="evenodd" d="M20.5249 14.5965C19.2267 14.5965 17.9816 15.1123 17.0636 16.0303C16.1456 16.9483 15.6298 18.1934 15.6298 19.4916C15.6298 19.5165 15.6287 19.5413 15.6264 19.5661C15.6061 19.7879 15.6061 20.0112 15.6264 20.233C15.6675 20.6817 15.3371 21.0788 14.8884 21.1199C14.4397 21.161 14.0427 20.8306 14.0015 20.3819C13.9733 20.0735 13.9722 19.7632 13.9982 19.4547C14.008 17.737 14.6945 16.0918 15.9098 14.8765C17.1338 13.6525 18.7939 12.9648 20.5249 12.9648C22.2559 12.9648 23.916 13.6525 25.1401 14.8765C26.3554 16.0918 27.0419 17.737 27.0516 19.4547C27.0777 19.7632 27.0766 20.0735 27.0483 20.3819C27.0072 20.8306 26.6101 21.161 26.1614 21.1199C25.7127 21.0788 25.3823 20.6817 25.4234 20.233C25.4437 20.0112 25.4437 19.7879 25.4234 19.5661C25.4211 19.5413 25.42 19.5165 25.42 19.4916C25.42 18.1934 24.9043 16.9483 23.9863 16.0303C23.0683 15.1123 21.8232 14.5965 20.5249 14.5965Z" fill="white"/>
  <path fill-rule="evenodd" clip-rule="evenodd" d="M9.03809 19.4918C9.03809 19.0412 9.40335 18.6759 9.85393 18.6759H11.4856C11.9362 18.6759 12.3015 19.0412 12.3015 19.4918C12.3015 19.9423 11.9362 20.3076 11.4856 20.3076H9.85393C9.40335 20.3076 9.03809 19.9423 9.03809 19.4918Z" fill="white"/>
  <path fill-rule="evenodd" clip-rule="evenodd" d="M12.5407 11.5722C12.8593 11.2536 13.3759 11.2536 13.6945 11.5722L14.5103 12.3881C14.829 12.7067 14.829 13.2232 14.5103 13.5418C14.1917 13.8604 13.6752 13.8604 13.3566 13.5418L12.5407 12.726C12.2221 12.4074 12.2221 11.8908 12.5407 11.5722Z" fill="white"/>
  <path fill-rule="evenodd" clip-rule="evenodd" d="M20.4604 8.06982C20.911 8.06982 21.2762 8.43509 21.2762 8.88567V10.5174C21.2762 10.9679 20.911 11.3332 20.4604 11.3332C20.0098 11.3332 19.6445 10.9679 19.6445 10.5174V8.88567C19.6445 8.43509 20.0098 8.06982 20.4604 8.06982Z" fill="white"/>
  <path fill-rule="evenodd" clip-rule="evenodd" d="M28.3795 11.5722C28.6981 11.8908 28.6981 12.4074 28.3795 12.726L27.5636 13.5418C27.245 13.8604 26.7285 13.8604 26.4099 13.5418C26.0912 13.2232 26.0912 12.7067 26.4099 12.3881L27.2257 11.5722C27.5443 11.2536 28.0609 11.2536 28.3795 11.5722Z" fill="white"/>
  <path fill-rule="evenodd" clip-rule="evenodd" d="M28.6182 19.4916C28.6182 19.041 28.9834 18.6758 29.434 18.6758H31.0657C31.5163 18.6758 31.8816 19.041 31.8816 19.4916C31.8816 19.9422 31.5163 20.3075 31.0657 20.3075H29.434C28.9834 20.3075 28.6182 19.9422 28.6182 19.4916Z" fill="white"/>
  </svg>
  