<svg width="41" height="41" viewBox="0 0 41 41" fill="none" xmlns="http://www.w3.org/2000/svg">
  <circle cx="20.04" cy="20.8022" r="20" fill="#AAD155"/>
  <path d="M23.53 18.4322C23.35 15.6422 22.22 12.9222 20.1 10.8022C17.96 12.9422 16.78 15.6622 16.55 18.4322C17.83 19.1122 19.01 19.9922 20.04 21.0622C21.07 20.0022 22.25 19.1222 23.53 18.4322ZM20.09 13.9922C20.72 15.0222 21.16 16.1722 21.39 17.3722C20.92 17.6722 20.48 18.0022 20.05 18.3522C19.63 18.0122 19.18 17.6822 18.72 17.3822C18.97 16.1822 19.43 15.0322 20.09 13.9922ZM20.04 24.2522C19.22 23.0022 18.18 21.9122 16.98 21.0522C16.85 20.9622 16.71 20.8922 16.58 20.7922C16.71 20.8822 16.85 20.9622 16.97 21.0422C15.02 19.6322 12.63 18.8022 10.04 18.8022C10.04 24.1222 13.4 28.6222 18.07 30.2922C18.7 30.5222 19.36 30.6922 20.04 30.8022C20.72 30.6822 21.37 30.5122 22.01 30.2922C26.68 28.6222 30.04 24.1222 30.04 18.8022C25.86 18.8022 22.19 20.9722 20.04 24.2522ZM21.36 28.4022C20.92 28.5522 20.48 28.6722 20.03 28.7722C19.59 28.6822 19.16 28.5622 18.75 28.4122C15.46 27.2322 13.05 24.4222 12.3 21.0622C13.4 21.3222 14.45 21.7722 15.42 22.3922L15.4 22.4022C15.53 22.4922 15.66 22.5822 15.79 22.6522L15.86 22.6922C16.85 23.4122 17.7 24.3022 18.37 25.3422L20.04 27.9022L21.71 25.3522C22.4 24.3022 23.26 23.4022 24.24 22.6922L24.31 22.6422C24.4 22.5922 24.49 22.5322 24.58 22.4722L24.57 22.4522C25.55 21.8022 26.64 21.3222 27.78 21.0522C27.03 24.4222 24.63 27.2322 21.36 28.4022ZM17.03 21.0822C17.01 21.0722 16.99 21.0522 16.98 21.0422C16.98 21.0422 16.99 21.0422 16.99 21.0522C17 21.0622 17.01 21.0722 17.03 21.0822Z" fill="white"/>
  </svg>
  