<svg width="41" height="41" viewBox="0 0 41 41" fill="none" xmlns="http://www.w3.org/2000/svg">
  <circle cx="20.04" cy="20.8022" r="20" fill="#0355A3"/>
  <path d="M17.6849 22.5427L20.0049 20.7827L22.3149 22.5427L21.4349 19.6927L23.7549 17.8527H20.9149L20.0049 15.0427L19.0949 17.8527H16.2549L18.5649 19.6927L17.6849 22.5427ZM28.0049 18.8527C28.0049 14.4327 24.4249 10.8527 20.0049 10.8527C15.5849 10.8527 12.0049 14.4327 12.0049 18.8527C12.0049 20.8827 12.7649 22.7227 14.0049 24.1327V31.8527L20.0049 29.8527L26.0049 31.8527V24.1327C27.2449 22.7227 28.0049 20.8827 28.0049 18.8527ZM20.0049 12.8527C23.3149 12.8527 26.0049 15.5427 26.0049 18.8527C26.0049 22.1627 23.3149 24.8527 20.0049 24.8527C16.6949 24.8527 14.0049 22.1627 14.0049 18.8527C14.0049 15.5427 16.6949 12.8527 20.0049 12.8527ZM20.0049 27.8527L16.0049 28.8727V25.7727C17.1849 26.4527 18.5449 26.8527 20.0049 26.8527C21.4649 26.8527 22.8249 26.4527 24.0049 25.7727V28.8727L20.0049 27.8527Z" fill="white"/>
  </svg>
  