<svg width="27" height="27" viewBox="0 0 27 27" fill="none" xmlns="http://www.w3.org/2000/svg">
  <path fill-rule="evenodd" clip-rule="evenodd" d="M6.39574 1.34998H20.6045C20.8629 1.34998 21.0717 1.5588 21.0717 1.81721C21.0717 2.14099 21.0643 2.4806 21.0506 2.83287C23.0999 2.75799 25.0531 2.88771 24.5533 6.61071C24.2781 8.65469 23.1875 10.5257 21.7775 11.7672C20.6036 12.7997 19.2694 13.3408 18.1147 13.1752C17.3268 14.2298 16.3533 15.0293 15.1625 15.4143V17.6502C16.0843 17.9582 16.8025 18.5467 16.9723 19.42C17.5977 19.6088 18.0439 20.1899 18.0439 20.8575V22.7591C18.74 22.872 19.2663 23.4816 19.2663 24.1956V25.1838C19.2663 25.4422 19.0574 25.6511 18.799 25.6511L8.26902 25.649C8.01063 25.649 7.80179 25.4401 7.80179 25.1817C7.80179 24.3738 7.68577 23.7094 8.22893 23.1662L8.22998 23.1673C8.42088 22.9616 8.73413 22.8056 9.02416 22.7581V20.8565C9.02416 20.4452 9.19291 20.0697 9.46607 19.7965L9.46502 19.7955C9.63904 19.6214 9.85525 19.4896 10.0968 19.4179C10.2666 18.5446 10.9848 17.9571 11.9055 17.6481V15.4333C10.6832 15.0568 9.6886 14.2468 8.88587 13.1731C7.73099 13.3387 6.39679 12.7987 5.22304 11.7651C3.81397 10.5237 2.72239 8.6528 2.44717 6.60863C1.94619 2.8856 3.90053 2.75681 5.94989 2.83079C5.93512 2.47852 5.92879 2.13891 5.92879 1.81513C5.92879 1.55884 6.13762 1.35 6.39603 1.35L6.39574 1.34998ZM20.9957 3.76731C20.788 6.5232 20.1309 9.84123 18.7113 12.2691C21.0031 12.1045 23.2748 9.11655 23.6283 6.48729C24.0227 3.56265 22.5999 3.70818 20.9957 3.76731ZM8.2879 12.268C6.86935 9.84221 6.21122 6.51996 6.00346 3.76623C4.39928 3.70717 2.97757 3.56268 3.36991 6.48513C3.61354 8.30026 4.58596 9.96138 5.83892 11.0646C6.64471 11.7744 7.52116 12.2132 8.2879 12.268ZM14.2268 15.6219L12.8389 15.6304V17.4402H14.2268V15.6219ZM15.9671 19.3566C15.2942 17.9908 11.7748 17.9908 11.1008 19.3566H15.9671ZM8.73618 24.7155H18.3317C18.3317 24.0089 18.4045 23.6703 17.5766 23.6745H9.25731C9.11387 23.6745 8.98415 23.7326 8.88922 23.8264L8.89027 23.8275C8.67934 24.0384 8.73618 24.3569 8.73618 24.7155ZM9.95855 22.7401H17.1082V20.8575C17.1082 20.5453 16.854 20.2911 16.5418 20.2911H10.5248C10.3698 20.2911 10.2284 20.3544 10.1251 20.4577L10.124 20.4567L9.95845 20.8575L9.95855 22.7401ZM20.1322 2.28436H6.8684C6.94434 6.08326 8.19308 14.7338 13.5001 14.7338C18.8072 14.7338 20.0563 6.08326 20.1322 2.28436Z" fill="#F2F2F2"/>
  </svg>
  