<svg width="41" height="41" viewBox="0 0 41 41" fill="none" xmlns="http://www.w3.org/2000/svg">
  <circle cx="20.04" cy="20.8022" r="20" fill="#FBCD66"/>
  <path d="M27.7197 20.6245H11.7197L9.71973 30.6245H29.7197L27.7197 20.6245ZM26.0797 22.6245L26.4797 24.6245H20.7197V22.6245H26.0797ZM18.7197 22.6245V24.6245H12.9597L13.3597 22.6245H18.7197ZM12.5597 26.6245H18.7197V28.6245H12.1597L12.5597 26.6245ZM20.7197 28.6245V26.6245H26.8797L27.2797 28.6245H20.7197Z" fill="white"/>
  <path d="M20.7197 16.6245H18.7197V19.6245H20.7197V16.6245Z" fill="white"/>
  <path d="M24.8984 14.4155L23.4842 15.8297L25.6055 17.951L27.0197 16.5368L24.8984 14.4155Z" fill="white"/>
  <path d="M14.5459 14.416L12.4246 16.5373L13.8388 17.9515L15.9601 15.8302L14.5459 14.416Z" fill="white"/>
  <path d="M13.7197 10.6245H10.7197V12.6245H13.7197V10.6245Z" fill="white"/>
  <path d="M28.7197 10.6245H25.7197V12.6245H28.7197V10.6245Z" fill="white"/>
  <path d="M19.7197 15.6245C22.4797 15.6245 24.7197 13.3845 24.7197 10.6245H22.7197C22.7197 12.2745 21.3697 13.6245 19.7197 13.6245C18.0697 13.6245 16.7197 12.2745 16.7197 10.6245H14.7197C14.7197 13.3845 16.9597 15.6245 19.7197 15.6245Z" fill="white"/>
  </svg>
  