<svg width="31" height="31" viewBox="0 0 31 31" fill="none" xmlns="http://www.w3.org/2000/svg">
  <g clip-path="url(#clip0_7704_253)">
  <path d="M14.9925 0.145313C14.9017 0.0520707 14.777 0 14.6462 0H8.3758C8.1094 0 7.89143 0.216758 7.89143 0.484375V12.3382H1.21062C1.02292 12.3382 0.850956 12.4471 0.772247 12.6179C0.692326 12.7874 0.718964 12.9896 0.838847 13.1338L4.66673 17.7013L4.55411 19.996C4.54442 20.1958 4.65825 20.3811 4.8411 20.4622L8.30194 22.005L8.30073 22.0037C8.43636 22.0643 8.59015 22.0595 8.72094 21.9916C8.85172 21.9238 8.94496 21.8003 8.97402 21.6562C9.0709 21.1682 9.49836 19.8289 10.2939 19.4911C10.696 19.3215 11.1682 19.4172 11.7374 19.7841C13.1106 20.6681 13.5949 21.8282 14.0624 22.9483C14.4632 23.9073 14.8773 24.9003 15.8376 25.5591C16.2614 25.8497 16.3292 26.2093 16.4189 26.8705C16.6526 28.5876 17.229 30.0818 21.9226 30.9913H21.9238C22.097 31.024 22.2762 30.9611 22.3888 30.8242C22.5014 30.6874 22.5305 30.5009 22.4651 30.3362C22.4481 30.2938 20.7976 26.0641 22.9253 24.3845H22.9265C23.7511 23.7004 24.5237 22.9568 25.2406 22.16C26.6174 20.7021 27.809 19.4403 29.1543 19.5178C29.2984 19.5251 29.4389 19.4681 29.537 19.3628C29.6351 19.2574 29.6799 19.1133 29.6617 18.9705C29.6605 18.9571 29.4922 17.6336 29.9947 16.8562C30.7625 15.6707 29.8058 13.1786 28.7705 12.1032V9.26724C28.7705 9.11345 28.6978 8.97056 28.5755 8.87853L25.7661 6.77878C25.5833 6.64315 25.329 6.65284 25.157 6.80299C25.1437 6.81389 23.8649 7.91221 22.7896 7.41332C22.6613 7.35399 22.5293 7.30313 22.3949 7.26074C22.2242 7.47024 22.0219 7.65187 21.7955 7.80083V8.10598C21.9989 8.14231 22.1951 8.20528 22.3816 8.29247C23.6312 8.87251 24.9027 8.17622 25.4791 7.77418L27.8005 9.50947L27.8017 12.3079C27.8017 12.4472 27.8611 12.5792 27.9652 12.6712C28.8819 13.4813 29.6097 15.6695 29.1822 16.3295C28.7208 17.0416 28.6555 17.9873 28.6663 18.5698C27.1224 18.7587 25.863 20.0919 24.5371 21.4966V21.4954C23.8518 22.2571 23.1131 22.9679 22.326 23.623C20.2758 25.2408 20.8571 28.3697 21.2894 29.8655C17.6918 29.0239 17.5331 27.8638 17.3794 26.7388C17.2873 26.068 17.1844 25.3075 16.3864 24.7602C15.6611 24.2625 15.3353 23.4802 14.9575 22.5756C14.4574 21.3768 13.8894 20.0169 12.2631 18.9694H12.2619C11.803 18.6461 11.2593 18.462 10.6974 18.4402C10.4286 18.4402 10.1609 18.4947 9.91273 18.6013C8.92702 19.0215 8.41115 20.1804 8.17989 20.8899L5.53763 19.7129L5.64299 17.5599L5.6442 17.5587C5.65025 17.4376 5.61029 17.3177 5.53158 17.2244L2.24868 13.307H8.37614C8.64376 13.307 8.86051 13.0902 8.86051 12.8226V0.968816H14.1535C14.1341 2.07198 14.0978 4.69502 14.1631 5.65757C14.2358 6.7341 15.2276 6.85761 16.1019 6.9666V6.96781C16.8478 7.02352 17.578 7.21 18.2597 7.51636C18.4474 7.60839 18.6412 7.69073 18.8386 7.76218C18.3263 7.41343 17.9522 6.89514 17.7826 6.29935C17.2716 6.15888 16.7497 6.0608 16.2217 6.00631C15.2542 5.88521 15.1452 5.81498 15.1295 5.59218C15.0508 4.42726 15.1295 0.532977 15.1307 0.494227C15.1331 0.364656 15.0833 0.238554 14.9925 0.145313Z" fill="#F2F2F2"/>
  <path d="M20.3425 9.20325C20.6101 9.20325 20.8269 8.98649 20.8269 8.71887V7.19429C21.6334 6.95332 22.1419 6.15771 22.0209 5.32462C21.8986 4.4927 21.1841 3.87512 20.3425 3.87512C19.5009 3.87512 18.7864 4.4927 18.6653 5.32462C18.5442 6.15775 19.0516 6.95333 19.8581 7.19429V8.71887C19.8581 8.98649 20.0749 9.20325 20.3425 9.20325ZM19.6159 5.57036C19.6159 5.2761 19.7939 5.01211 20.0652 4.89949C20.3364 4.78687 20.6488 4.84863 20.8571 5.05691C21.0642 5.26398 21.1259 5.57641 21.0145 5.84886C20.9019 6.12011 20.6367 6.29691 20.3425 6.29691C19.9416 6.29691 19.6172 5.97119 19.6159 5.57036Z" fill="#F2F2F2"/>
  <path d="M25.1862 18.8907C25.4539 18.8907 25.6706 18.674 25.6706 18.4064V16.8818C26.4771 16.6408 26.9857 15.8452 26.8634 15.0121C26.7423 14.1802 26.0279 13.5626 25.1862 13.5626C24.3446 13.5626 23.6302 14.1802 23.5091 15.0121C23.388 15.8452 23.8954 16.6408 24.7019 16.8818V18.4064C24.7019 18.674 24.9186 18.8907 25.1862 18.8907ZM24.4597 15.2579C24.4597 14.9636 24.6365 14.6996 24.9089 14.587C25.1802 14.4744 25.4926 14.5361 25.6997 14.7444C25.9079 14.9515 25.9697 15.2639 25.8571 15.5364C25.7457 15.8076 25.4805 15.9844 25.1862 15.9844C24.7854 15.9844 24.4609 15.6587 24.4597 15.2579Z" fill="#F2F2F2"/>
  <path d="M12.8358 16.9532C13.1022 16.9532 13.3202 16.7365 13.3202 16.4689V14.9443C14.1267 14.7033 14.6341 13.9077 14.513 13.0746C14.3919 12.2427 13.6774 11.6251 12.8358 11.6251C11.993 11.6251 11.2798 12.2427 11.1575 13.0746C11.0364 13.9077 11.5437 14.7033 12.3514 14.9443V16.4689C12.3514 16.7365 12.5682 16.9532 12.8358 16.9532ZM12.1092 13.3204C12.1092 13.0261 12.286 12.7621 12.5573 12.6495C12.8285 12.5369 13.141 12.5986 13.3492 12.8069C13.5563 13.014 13.6193 13.3264 13.5067 13.5989C13.3941 13.8701 13.1288 14.0469 12.8358 14.0469C12.4338 14.0469 12.1092 13.7212 12.1092 13.3204Z" fill="#F2F2F2"/>
  </g>
  <defs>
  <clipPath id="clip0_7704_253">
  <rect width="31" height="31" fill="white"/>
  </clipPath>
  </defs>
  </svg>
  