<svg width="41" height="41" viewBox="0 0 41 41" fill="none" xmlns="http://www.w3.org/2000/svg">
  <circle cx="20.04" cy="20.8022" r="20" fill="#ACA7E9"/>
  <path d="M17.9697 11.8745H11.9697V13.8745H17.9697V11.8745Z" fill="white"/>
  <path d="M13.9697 15.8745H8.96973V17.8745H13.9697V15.8745Z" fill="white"/>
  <path d="M15.9697 27.8745H10.9697V29.8745H15.9697V27.8745Z" fill="white"/>
  <path d="M30.1797 27.4845L27.8997 23.3845C27.6297 22.9045 27.1697 22.5545 26.6397 22.4145L23.9497 21.7445C23.9297 21.2745 23.8097 20.8245 23.5797 20.4145L27.5397 13.8245C28.1897 12.7445 27.8397 11.3445 26.7597 10.6945C26.3997 10.4745 25.9897 10.3745 25.5897 10.3745C25.0297 10.3745 24.4697 10.5845 24.0297 10.9945L20.5997 14.2045C20.1997 14.5745 19.9697 15.1045 19.9697 15.6545V19.0545C19.4997 19.2245 19.0797 19.5045 18.7397 19.8745H11.2497C9.98973 19.8745 8.96973 20.8945 8.96973 22.1545C8.96973 23.1745 9.63973 24.0645 10.6197 24.3445L15.1297 25.6345C15.3097 25.6845 15.4997 25.7145 15.6797 25.7145C16.0397 25.7145 16.3997 25.6145 16.7097 25.4245L18.9497 24.0845C19.2397 24.3445 19.5797 24.5545 19.9697 24.6945V29.8745C18.8697 29.8745 17.9697 30.7745 17.9697 31.8745H23.9697C23.9697 30.7745 23.0697 29.8745 21.9697 29.8745V25.5945L26.5797 30.2045C27.0297 30.6545 27.6097 30.8745 28.1897 30.8745C28.7697 30.8745 29.3597 30.6545 29.7997 30.2045C30.5197 29.4845 30.6797 28.3745 30.1797 27.4845ZM15.6897 23.7145L11.1697 22.4245C11.0497 22.3945 10.9697 22.2745 10.9697 22.1545C10.9697 22.0045 11.0997 21.8745 11.2497 21.8745H17.9797C17.9797 22.0245 17.9897 22.1745 18.0097 22.3145L15.6897 23.7145ZM20.9697 22.8745C20.4197 22.8745 19.9697 22.4245 19.9697 21.8745C19.9697 21.3245 20.4197 20.8745 20.9697 20.8745C21.5197 20.8745 21.9697 21.3245 21.9697 21.8745C21.9697 22.4245 21.5197 22.8745 20.9697 22.8745ZM21.9697 19.0145V15.6545L25.3997 12.4445C25.4497 12.3945 25.5897 12.3245 25.7397 12.4045C25.8697 12.4845 25.9197 12.6545 25.8397 12.7845L22.0997 19.0245L21.9697 19.0145ZM28.3897 28.7945C28.3397 28.8445 28.1497 28.9545 27.9897 28.7945L23.1397 23.9445C23.2197 23.8545 23.2997 23.7645 23.3797 23.6645L26.1597 24.3545L28.4397 28.4545C28.4997 28.5645 28.4797 28.7045 28.3897 28.7945Z" fill="white"/>
  </svg>
  