<svg width="35" height="35" viewBox="0 0 35 35" fill="none" xmlns="http://www.w3.org/2000/svg">
  <path fill-rule="evenodd" clip-rule="evenodd" d="M8.932 22.1497C8.69958 22.1757 8.46444 22.1894 8.22518 22.1894C4.68703 22.1894 1.81458 19.3155 1.81458 15.7788C1.81458 14.752 2.3464 13.3055 3.12708 11.7975C4.83469 8.50394 7.67848 4.84546 7.67848 4.84546C7.80973 4.6773 8.01207 4.57886 8.22535 4.57886C8.43863 4.57886 8.64098 4.6773 8.77223 4.84546C8.77223 4.84546 11.646 8.54636 13.3551 11.8619C15.153 9.12344 16.8223 6.97696 16.8223 6.97696C16.9535 6.8088 17.1559 6.70899 17.3692 6.70899C17.5838 6.70899 17.7848 6.8088 17.916 6.97696C17.916 6.97696 19.5963 9.13849 21.4024 11.8892C23.1086 8.5683 25.9989 4.84546 25.9989 4.84546C26.1302 4.6773 26.3325 4.57886 26.5458 4.57886C26.7604 4.57886 26.9614 4.6773 27.0927 4.84546C27.0927 4.84546 29.9364 8.50401 31.6441 11.7975C32.4247 13.3055 32.9566 14.752 32.9566 15.7788C32.9566 16.5457 32.8212 17.2813 32.5737 17.9635C31.6796 20.4272 29.3171 22.1894 26.5457 22.1894C26.2955 22.1894 26.0494 22.1744 25.8074 22.147C25.7595 22.9838 25.59 23.7877 25.3166 24.541C24.1367 27.7894 21.0221 30.1123 17.3691 30.1123C12.8685 30.1123 9.18509 26.5878 8.93239 22.1498L8.932 22.1497ZM12.1955 13.6867C12.2898 13.5322 12.3855 13.3777 12.4812 13.2246C11.3191 10.7172 9.21774 7.76146 8.22521 6.42131C7.33653 7.6217 5.55783 10.1208 4.35736 12.4357C3.69838 13.7086 3.20072 14.9117 3.20072 15.7785C3.20072 18.5512 5.45248 20.8027 8.22497 20.8027C8.4902 20.8027 8.74997 20.7822 9.00428 20.7426C9.0535 20.4609 9.12459 20.1656 9.21483 19.858C9.51697 18.8012 10.0338 17.6035 10.6709 16.3731C11.1316 15.483 11.6554 14.5727 12.1955 13.6867ZM20.8923 13.6553C19.5251 11.4883 18.1169 9.55222 17.3692 8.54877C16.6241 9.54683 15.2268 11.4705 13.8664 13.6238C13.8609 13.632 13.8568 13.6402 13.8513 13.6484C13.7132 13.8685 13.5738 14.09 13.4371 14.3128C12.8916 15.2015 12.3652 16.1161 11.9017 17.0103C11.3384 18.0972 10.864 19.1499 10.581 20.0796C10.4416 20.5472 10.3486 20.9847 10.3158 21.3812C10.3144 21.3907 10.3144 21.4017 10.3131 21.4112C10.3062 21.496 10.3035 21.5794 10.3035 21.6601C10.3035 25.5594 13.4699 28.7259 17.3693 28.7259C20.4236 28.7259 23.0281 26.7831 24.0137 24.0677C24.2858 23.3158 24.4348 22.505 24.4348 21.6601C24.4348 21.5767 24.4321 21.4919 24.4252 21.4058L24.4211 21.373C24.3869 20.9697 24.2912 20.5226 24.1463 20.0455C23.8633 19.124 23.393 18.0849 22.8365 17.0103C22.3785 16.1257 21.8576 15.2206 21.3176 14.3402C21.1823 14.1187 21.0442 13.8972 20.9061 13.6798C20.902 13.6716 20.8964 13.6635 20.8923 13.6553ZM25.5119 19.8198C25.6063 20.1397 25.6815 20.446 25.7334 20.7372C25.9973 20.7796 26.2693 20.8028 26.5455 20.8028C28.718 20.8028 30.5691 19.422 31.2705 17.4901C31.4647 16.9556 31.5699 16.38 31.5699 15.7784C31.5699 14.9116 31.0723 13.7085 30.4133 12.4357C29.2143 10.121 27.4342 7.62176 26.5454 6.42126C25.5487 7.76659 23.4337 10.7417 22.2758 13.2543C22.3633 13.3951 22.4508 13.5373 22.5369 13.6795C23.0797 14.5682 23.6047 15.4801 24.0668 16.3728C24.6971 17.5883 25.207 18.7712 25.5119 19.8198ZM22.2785 20.9478C22.3018 20.5663 22.6299 20.2751 23.0113 20.297C23.3928 20.3202 23.6854 20.6483 23.6621 21.0298C23.4256 25.0317 20.7363 27.3599 17.4689 27.7579C17.0888 27.803 16.7443 27.5323 16.6978 27.1535C16.6513 26.7735 16.922 26.4276 17.3021 26.3811C19.9339 26.0612 22.0887 24.1717 22.2788 20.948L22.2785 20.9478Z" fill="#F2F2F2"/>
  </svg>
  