<svg width="37" height="37" viewBox="0 0 37 37" fill="none" xmlns="http://www.w3.org/2000/svg">
  <path d="M31.4111 18.9625V18.8859L31.2189 15.6093C31.1799 15.5703 31.1799 15.4937 31.1799 15.4547L30.3315 12.1406L29.7924 9.78907C29.6002 8.86407 28.7518 8.20935 27.8268 8.20935H19.8111C19.6564 8.20935 19.5032 8.24837 19.3876 8.364L16.2657 10.7531C16.1891 10.7921 16.1501 10.8297 16.0735 10.8297L13.2219 10.8687C13.0297 10.8687 12.875 10.7141 12.875 10.5218V9.90468C12.875 9.71245 12.7204 9.5578 12.5282 9.5578L5.89851 9.51878C5.70628 9.51878 5.55164 9.67343 5.55164 9.86566V23.0081C5.55164 23.2003 5.70628 23.3549 5.89851 23.3549L12.5282 23.394C12.7204 23.394 12.875 23.2393 12.875 23.0471V22.083C12.875 21.8908 13.0297 21.7362 13.2219 21.7362C13.6844 21.7362 14.4172 21.6971 14.8797 21.6971C15.0344 21.6971 15.15 21.8128 15.1876 21.9284C15.9969 24.7424 17.5001 25.7438 19.1188 26.7458C19.1578 26.7848 19.1954 26.8224 19.2344 26.8614C21.0844 29.6364 21.8172 31.4098 21.8172 31.4476C21.9719 31.7554 22.2407 31.9101 22.5876 31.871C23.6282 31.6398 24.361 31.1383 24.7078 30.3679C25.4782 28.7882 24.5922 26.5133 23.475 24.0476C23.3984 23.8553 23.514 23.5851 23.7453 23.5851L24.3234 23.5085H24.4L28.7549 23.8553C29.9502 23.8944 30.9127 23.0069 31.0674 21.8507L31.4111 18.9625ZM29.5235 16.4187C29.7158 16.4187 29.8314 16.5734 29.8704 16.7266L29.947 17.9985C29.947 18.1907 29.7924 18.3453 29.6001 18.3453L24.5126 18.2687C24.2424 18.2687 24.0501 18.2687 24.0501 17.2281C24.0501 16.2641 24.2048 16.3421 24.5126 16.3421L29.5235 16.4187ZM28.9064 22.4312C28.8674 22.4312 24.358 22.0844 24.358 22.0844C23.8189 22.0453 23.5876 21.1984 23.5876 20.6203C23.5876 19.6187 23.7423 19.6187 24.0501 19.6187H29.5235C29.7158 19.6187 29.8704 19.7733 29.8704 20.0046L29.6767 21.6609C29.6392 22.0844 29.2533 22.4703 28.9064 22.4312ZM6.93763 10.8687H11.3314C11.5236 10.8687 11.6783 11.0234 11.6783 11.2156L11.6017 21.6219C11.6017 21.8141 11.447 21.9687 11.2548 21.9687H7.28468C7.09245 21.9687 6.9378 21.8141 6.9378 21.6219L6.93763 10.8687ZM19.9265 9.63589C20.0031 9.59686 20.0421 9.55928 20.1187 9.55928H21.7375C21.9297 9.55928 22.0843 9.71393 22.0843 9.94519C22.0453 10.1374 22.0453 10.3311 22.0453 10.5624C22.0453 11.4108 22.2 12.0264 22.5468 12.4514C22.6234 12.528 22.6234 12.6436 22.5859 12.7592C22.4702 13.0671 22.4312 13.492 22.4312 13.9921C22.4312 14.7249 22.5468 15.264 22.8171 15.6499C22.8937 15.7265 22.8937 15.8421 22.8562 15.9577C22.6639 16.4202 22.6639 16.9983 22.6639 17.2686C22.6639 17.5389 22.6639 18.039 22.8186 18.5015C22.8576 18.6171 22.8186 18.7327 22.742 18.8483L22.6654 18.9249C22.5107 19.1172 22.2029 19.0406 22.1263 18.8093C21.7028 17.8077 21.1622 17.0359 20.5075 16.4578C19.8904 15.9187 19.1966 15.725 18.7341 15.6484C18.5419 15.6094 18.3482 15.764 18.3482 15.9953L18.3453 16.5734C18.3453 16.7281 18.4609 16.8813 18.6156 16.9203C18.8859 16.9969 19.3093 17.1515 19.7718 17.575C20.5046 18.2687 21.4296 19.8109 21.6984 23.2016C21.6984 23.3172 21.7375 23.3562 21.775 23.4328L21.8516 23.6251C22.9313 25.9376 24.1641 28.5579 23.547 29.753C23.4704 29.9077 23.3548 30.0609 23.2391 30.1389C23.0845 30.2936 22.8157 30.2155 22.7376 30.0233C22.3141 29.1373 21.5423 27.7108 20.3095 25.8996C20.2704 25.823 20.1548 25.745 20.1172 25.7074C18.3438 24.6278 17.072 23.8574 16.4172 20.89C16.3406 20.5822 16.1094 20.3885 15.8001 20.3509C15.4142 20.3119 14.0657 20.3509 13.3329 20.3509C13.1407 20.3509 12.986 20.1963 12.986 20.004L12.9889 12.526C12.9889 12.3338 13.1436 12.1791 13.3358 12.1791L16.4967 12.1401C16.6514 12.1401 16.767 12.1011 16.9202 11.9854L19.9265 9.63589ZM28.4827 10.0984L28.714 11.2156C28.753 11.4078 28.5984 11.6391 28.3671 11.6391H23.8187C23.664 11.6391 23.3952 11.6391 23.3952 10.5984C23.3952 9.59685 23.5875 9.59685 23.8187 9.59685H27.8658C28.136 9.55783 28.4047 9.78908 28.4827 10.0984ZM29.5234 14.6079C29.6 14.8392 29.4077 15.0314 29.1765 15.0314L24.1656 14.8768C23.9343 14.8768 23.7421 14.8768 23.7421 13.8752C23.7421 12.8736 23.9343 12.8736 24.1656 12.8736L28.8294 12.9502C28.9841 12.9502 29.0997 13.0658 29.1373 13.1814L29.5234 14.6079Z" fill="#F2F2F2"/>
  </svg>
  