<svg width="28" height="28" viewBox="0 0 28 28" fill="none" xmlns="http://www.w3.org/2000/svg">
  <path fill-rule="evenodd" clip-rule="evenodd" d="M26.4743 4.10255C26.6865 4.46459 26.7871 4.83973 26.7882 5.2466C26.7915 6.1041 26.2545 7.10924 25.2679 8.55088C24.9015 9.08683 23.9455 10.2812 23.2171 11.0085C22.3093 11.9163 21.1882 12.0181 20.1326 12.0082C19.6973 12.0038 19.2784 11.982 18.9054 12.0257C18.6451 12.0563 18.4089 12.1132 18.2339 12.2849L16.7114 13.9081L26.0357 22.6558L26.0368 22.6569C26.5071 23.0999 26.7783 23.7146 26.7882 24.361C26.798 25.0074 26.5454 25.6308 26.0882 26.088C25.631 26.5452 25.0075 26.7979 24.3611 26.788C23.7147 26.7781 23.1 26.5069 22.6571 26.0366L22.656 26.0355C22.656 26.0355 17.7571 20.8129 13.9945 16.8031L5.33295 26.0355L5.33185 26.0366C4.88889 26.5069 4.27421 26.7781 3.6278 26.788C2.98139 26.7978 2.35794 26.5452 1.90076 26.088C1.44358 25.6308 1.1909 25.0074 1.20076 24.361C1.2106 23.7146 1.48185 23.0999 1.95217 22.6569L1.95326 22.6558C1.95326 22.6558 7.25786 17.6794 11.2775 13.9081C10.4015 12.974 9.82286 12.3582 9.75395 12.2838C9.58332 12.1176 9.3449 12.0749 9.0791 12.0574C8.68864 12.0312 8.24565 12.076 7.78628 12.1034C6.67065 12.169 5.4905 12.1132 4.57832 11.201C3.84769 10.4704 2.73536 8.92819 2.393 8.37245C1.99596 7.72822 1.37145 6.70886 1.25878 5.99354C0.971134 4.16699 1.80346 2.88834 2.34596 2.34598C2.88846 1.80362 4.16705 0.972245 5.99352 1.2588C6.70884 1.37145 7.72821 1.99598 8.37243 2.39302C8.92697 2.73538 10.4692 3.84661 11.201 4.57834C12.1132 5.49052 12.169 6.67069 12.1033 7.7863C12.076 8.24566 12.0312 8.68865 12.0574 9.07911C12.0749 9.34489 12.1176 9.58334 12.2849 9.75506L13.9945 11.3596C15.0368 10.3818 15.7051 9.75506 15.7051 9.75506C15.8768 9.58006 15.9337 9.3438 15.9643 9.08351C16.0081 8.71055 15.9862 8.29164 15.9818 7.85632C15.972 6.80086 16.0737 5.67977 16.9815 4.77185C17.7088 4.04449 18.9043 3.08748 19.4391 2.72107C20.8807 1.73452 21.8859 1.19748 22.7434 1.20075C23.1503 1.20185 23.5254 1.30247 23.8875 1.51466C23.9104 1.52779 23.9323 1.542 23.9542 1.55951C23.9968 1.59341 24.034 1.63169 24.0646 1.67544C24.1182 1.75091 24.15 1.83622 24.1609 1.92372C24.1718 2.01122 24.162 2.10201 24.1292 2.18841C24.1106 2.23763 24.0843 2.28466 24.0504 2.32732C24.034 2.3481 24.0165 2.36778 23.9979 2.38638L19.1898 7.19454C18.9765 7.40782 18.6298 7.40782 18.4165 7.19454C18.2032 6.98126 18.2032 6.63454 18.4165 6.42126L22.5291 2.30862C21.8751 2.39722 21.127 2.89158 20.0573 3.62331C19.5552 3.96676 18.4363 4.86253 17.7549 5.54503C16.9259 6.37408 17.0746 7.46239 17.0834 8.38759C17.091 9.25604 16.9904 10.0162 16.473 10.5335C16.4687 10.5379 16.4643 10.5412 16.461 10.5456L2.70377 23.4519C2.44892 23.6925 2.30127 24.0261 2.29581 24.3761C2.29034 24.7272 2.42706 25.0652 2.67535 25.3135C2.92363 25.5618 3.26161 25.6985 3.61271 25.693C3.9638 25.6875 4.29739 25.541 4.53693 25.285L17.4433 11.5278C17.4476 11.5234 17.4509 11.5191 17.4553 11.5158C17.9726 10.9984 18.7328 10.8978 19.6012 10.9055C20.5265 10.9142 21.6137 11.063 22.4438 10.2339C23.1252 9.5525 24.0221 8.43359 24.3655 7.93155C25.0983 6.86078 25.5927 6.11374 25.6802 5.45969L21.5676 9.57233C21.3543 9.78561 21.0076 9.78561 20.7943 9.57233C20.581 9.35905 20.581 9.01233 20.7943 8.79905L25.6024 3.99089C25.6199 3.9723 25.6396 3.9548 25.6615 3.93839C25.7042 3.90449 25.7512 3.87824 25.8004 3.85964C25.8868 3.82683 25.9776 3.81699 26.0651 3.82792C26.1526 3.83886 26.2379 3.87058 26.3134 3.92417C26.356 3.9548 26.3954 3.99199 26.4293 4.03464C26.4457 4.05652 26.461 4.07839 26.4742 4.10136L26.4743 4.10255ZM15.9634 14.7064L14.7449 16.0047L23.4535 25.2873C23.6941 25.5421 24.0277 25.6898 24.3777 25.6952C24.7288 25.7007 25.0668 25.564 25.3151 25.3157C25.5633 25.0674 25.7001 24.7294 25.6946 24.3783C25.6891 24.0272 25.5426 23.6936 25.2866 23.4541L15.9624 14.7075L15.9634 14.7064ZM13.1962 12.111L11.5304 10.548C11.526 10.5436 11.5217 10.5404 11.5184 10.536C10.9977 10.0153 10.9234 9.21362 10.977 8.29488C11.0076 7.7677 11.0688 7.19784 11.0065 6.6477C10.954 6.18396 10.8074 5.73224 10.4301 5.35488C9.75087 4.67566 8.31696 3.64534 7.80182 3.32816C7.2626 2.99566 6.42587 2.43675 5.8265 2.3427C4.47573 2.13051 3.52306 2.72115 3.12277 3.12256C2.72136 3.52396 2.13073 4.47661 2.34291 5.82629C2.43697 6.42566 2.99587 7.26238 3.32837 7.80161C3.64556 8.31675 4.67696 9.75066 5.3551 10.4299C5.73354 10.8083 6.18415 10.9538 6.64791 11.0063C7.19805 11.0686 7.769 11.0085 8.2951 10.9768C9.21383 10.9232 10.0166 10.9975 10.5362 11.5182C10.5406 11.5225 10.5438 11.5269 10.5482 11.5302L12.0784 13.161L13.1973 12.111L13.1962 12.111ZM24.4684 2.74945C24.6817 2.53617 25.0284 2.53617 25.2417 2.74945C25.455 2.96273 25.455 3.30945 25.2417 3.52272L20.3789 8.38548C20.1657 8.59876 19.8189 8.59876 19.6057 8.38548C19.3924 8.1722 19.3924 7.82548 19.6057 7.61221L24.4684 2.74945Z" fill="#F2F2F2"/>
  </svg>
  