<svg width="19" height="25" viewBox="0 0 19 25" fill="none" xmlns="http://www.w3.org/2000/svg">
<path d="M9.50001 0.844635C4.38931 0.844635 0.225006 5.00894 0.225006 10.1196C0.225006 14.1446 4.18036 19.2553 6.80536 22.65L6.98036 22.8605C7.57508 23.6658 8.5198 24.1211 9.50008 24.1211C10.4804 24.1211 11.4251 23.6658 12.0198 22.8605C12.1948 22.6158 12.3698 22.4053 12.5804 22.1605C15.2054 18.8 18.775 14.1802 18.775 10.1212C18.775 5.01053 14.6107 0.844635 9.50001 0.844635ZM11.8106 21.5643C11.6356 21.809 11.425 22.0537 11.25 22.2643C10.8303 22.8249 10.2 23.1393 9.50001 23.1393C8.80001 23.1393 8.16973 22.8248 7.75001 22.2643L7.57501 22.0537C5.01973 18.7643 1.20536 13.793 1.20536 10.118C1.20536 5.56804 4.91606 1.82339 9.50001 1.82339C14.0857 1.82339 17.7947 5.53409 17.7947 10.118C17.7947 13.8641 14.3304 18.3103 11.8106 21.5643Z" fill="#051C34"/>
<path d="M9.5 6.13034C7.33028 6.13034 5.58035 7.88034 5.58035 10.05C5.58035 12.2196 7.33035 13.9696 9.5 13.9696C11.6697 13.9696 13.4197 12.2196 13.4197 10.05C13.4197 7.88034 11.6697 6.13034 9.5 6.13034ZM9.5 12.9896C7.88944 12.9896 6.56056 11.6594 6.56056 10.0502C6.56056 8.43964 7.89084 7.11076 9.5 7.11076C11.1106 7.11076 12.4394 8.44104 12.4394 10.0502C12.4394 11.6608 11.1105 12.9896 9.5 12.9896Z" fill="#051C34"/>
</svg>
