<svg width="27" height="27" viewBox="0 0 27 27" fill="none" xmlns="http://www.w3.org/2000/svg">
<path d="M15.8856 3.39581C16.0948 3.54073 16.2903 3.71026 16.4721 3.90576C16.9219 4.38974 17.3389 5.2374 17.6588 6.15342L21.6058 5.13212L22.0966 3.43819L23.0837 2.25285C23.3052 1.98761 23.6989 1.95206 23.9642 2.17218C24.2294 2.39366 24.2649 2.78741 24.0448 3.05264L23.2245 4.03702L22.6093 6.16299L18.0113 7.35243C18.1139 7.77488 18.189 8.18368 18.2328 8.55146L20.5228 8.50224C21.3459 8.4831 22.1416 8.79072 22.739 9.35536L24.2867 10.8196L25.967 11.4841C26.2869 11.6112 26.4441 11.9749 26.3184 12.2962C26.1912 12.6161 25.8276 12.7747 25.5063 12.6475L23.6031 11.8942L21.8805 10.2646C21.5209 9.92413 21.0438 9.74092 20.5502 9.75188L18.2177 9.80246C18.2 9.89817 18.1781 9.99387 18.1508 10.0868C18.1275 10.1675 18.0892 10.24 18.04 10.3015C18.1672 10.4245 18.2806 10.5544 18.3791 10.6884C18.7824 11.2421 19.064 11.9544 19.2486 12.8198L22.7459 14.4372L22.9578 19.4891C22.9592 19.5206 22.9674 19.5493 22.981 19.5766L24.958 23.3734C25.1166 23.6797 24.9976 24.057 24.6914 24.217C24.3865 24.3756 24.0078 24.2566 23.8492 23.9504L21.8723 20.1536C21.7738 19.9649 21.7178 19.7558 21.7096 19.5425L21.5291 15.2522L19.4619 14.2965C19.4715 14.4059 19.4811 14.518 19.4893 14.6314C19.5508 15.5146 19.5535 16.3131 19.5235 17.5736C19.5057 18.2804 19.5057 18.3297 19.5057 18.5361C19.5057 22.1537 16.8328 26.4591 13.6526 26.4591H12.9294C9.74933 26.4591 7.07774 22.1537 7.07774 18.5361C7.07774 18.3297 7.07638 18.2805 7.05997 17.5736C7.02989 16.3131 7.03263 15.5146 7.09415 14.6314C7.10099 14.5221 7.11056 14.4141 7.11876 14.3074L5.07756 15.2521L4.89709 19.5424C4.88752 19.7557 4.83284 19.9649 4.73303 20.1536L2.75746 23.9504C2.5975 24.2566 2.22014 24.3756 1.91389 24.217C1.60764 24.057 1.48871 23.6797 1.64865 23.3734L3.62423 19.5766C3.63927 19.5493 3.64747 19.5206 3.64747 19.4891L3.86075 14.4372L7.33205 12.8321C7.51662 11.9612 7.79825 11.2448 8.20432 10.6884C8.38342 10.4423 8.61449 10.214 8.88654 10.0034C8.8551 9.93919 8.82775 9.8722 8.80451 9.80247L6.43655 9.75188C5.94438 9.74094 5.46586 9.92415 5.10764 10.2646L3.38497 11.8942L1.48048 12.6475C1.16056 12.7747 0.796898 12.6161 0.669743 12.2962C0.542595 11.9749 0.699822 11.6112 1.02111 11.4841L2.70139 10.8196L4.24905 9.35537C4.8465 8.79071 5.64223 8.4831 6.46389 8.50224L8.74844 8.55146C8.79356 8.17276 8.87423 7.75027 8.98497 7.31277L4.54172 6.16295L3.92649 4.03698L3.10616 3.05261C2.88604 2.78738 2.92159 2.39363 3.18682 2.17215C3.45205 1.95203 3.8458 1.98758 4.06728 2.25281L5.05439 3.43816L5.54519 5.13209L9.35004 6.11646C9.66313 5.24419 10.0665 4.43755 10.4985 3.96039C10.694 3.74438 10.9004 3.55982 11.1192 3.40256L10.8061 3.00335C10.102 2.11057 9.08067 1.52541 7.95412 1.36955C7.61233 1.3217 7.37305 1.00587 7.42094 0.664093C7.46742 0.322297 7.78326 0.0830236 8.12503 0.130904C9.57151 0.330512 10.884 1.08385 11.7878 2.2309L12.2786 2.85432C12.645 2.75589 13.0374 2.70803 13.4571 2.70803C13.9028 2.70803 14.3225 2.75725 14.7149 2.86116L15.2112 2.23088C16.1149 1.08382 17.4274 0.330484 18.874 0.130879C19.2158 0.0830272 19.5316 0.322287 19.5781 0.664069C19.6259 1.00587 19.3867 1.32168 19.0449 1.36953C17.9183 1.52539 16.897 2.11055 16.1929 3.00333L15.8856 3.39581ZM10.2597 10.6076C10.1995 10.6581 10.1298 10.6964 10.0574 10.721C9.68821 10.937 9.39564 11.1763 9.21378 11.4251C8.72844 12.0896 8.44679 13.2161 8.34151 14.7173C8.28272 15.5513 8.27999 16.3196 8.31007 17.5433C8.32647 18.2665 8.32784 18.3144 8.32784 18.5358C8.32784 21.5519 10.5974 25.2075 12.9296 25.2075H13.6529C15.9853 25.2075 18.2547 21.5518 18.2547 18.5358C18.2547 18.3143 18.256 18.2665 18.2738 17.5433C18.3025 16.3196 18.2998 15.5513 18.241 14.7173C18.1371 13.2161 17.8541 12.0896 17.3687 11.4251C16.8602 10.7279 15.4943 10.1167 14.0054 9.84194L13.8701 9.81733L13.8619 9.81186C13.84 9.80913 13.814 9.80776 13.7867 9.80502C13.6541 9.79682 13.4763 9.79135 13.2918 9.79135C13.1072 9.79135 12.9294 9.79682 12.7968 9.80502C12.7681 9.80776 12.7435 9.80913 12.7203 9.81186L12.7134 9.81733L12.5767 9.84194C11.7154 10.0005 10.8964 10.2726 10.2593 10.6076L10.2597 10.6076ZM16.9944 9.54663C17.0149 9.43316 17.0245 9.31421 17.0245 9.18981C17.0245 8.02634 16.2916 5.54491 15.5575 4.75741C15.0434 4.20644 14.3516 3.95759 13.4575 3.95759C12.5948 3.95759 11.9604 4.20915 11.4258 4.79976C10.6916 5.60914 9.95885 8.03999 9.95885 9.16671C9.95885 9.24054 9.96295 9.30206 9.97389 9.35128C10.6766 9.02042 11.4969 8.77021 12.3501 8.61299L12.3528 8.62393C12.8313 8.51455 13.7514 8.51455 14.23 8.62393L14.2327 8.61299C15.2471 8.8003 16.2138 9.11869 16.9944 9.54663Z" fill="#051C34"/>
</svg>
