<svg width="27" height="16" viewBox="0 0 27 16" fill="none" xmlns="http://www.w3.org/2000/svg">
<path fill-rule="evenodd" clip-rule="evenodd" d="M22.6209 2.58324L14.6758 10.5283L10.227 6.07947C10.0309 5.88225 9.76297 5.77151 9.48455 5.77151C9.20612 5.77151 8.93928 5.88225 8.74205 6.07947L0.935266 13.8863C0.526054 14.2955 0.526054 14.961 0.935266 15.3702C1.34448 15.7794 2.01 15.7794 2.41921 15.3702L9.48457 8.30592L13.9323 12.7547C14.1295 12.9519 14.3964 13.0616 14.6748 13.0616C14.9532 13.0616 15.22 12.9509 15.4173 12.7547L24.1048 4.06719V9.08109C24.1048 9.66011 24.5752 10.1305 25.1542 10.1305C25.7332 10.1305 26.2036 9.66011 26.2036 9.08109V1.53378C26.2036 1.35448 26.1593 1.18572 26.0802 1.03914C26.0423 0.968475 25.9958 0.900975 25.94 0.837695L25.9231 0.81871L25.9062 0.800781C25.903 0.797617 25.8999 0.794453 25.8967 0.791289L25.8767 0.772304L25.8566 0.754375L25.8503 0.748046C25.7881 0.692148 25.7206 0.64574 25.6489 0.607773C25.5012 0.528671 25.3324 0.484375 25.1542 0.484375H17.6069C17.0279 0.484375 16.5575 0.954769 16.5575 1.53378C16.5575 2.1128 17.0279 2.58319 17.6069 2.58319L22.6209 2.58324Z" fill="#051C34"/>
</svg>
