<svg width="27" height="27" viewBox="0 0 27 27" fill="none" xmlns="http://www.w3.org/2000/svg">
<path fill-rule="evenodd" clip-rule="evenodd" d="M6.39576 1.35H20.6045C20.8629 1.35 21.0717 1.55883 21.0717 1.81723C21.0717 2.14102 21.0644 2.48062 21.0507 2.83289C23.0999 2.75801 25.0531 2.88773 24.5534 6.61073C24.2781 8.65471 23.1875 10.5257 21.7775 11.7672C20.6036 12.7997 19.2694 13.3408 18.1147 13.1752C17.3268 14.2299 16.3534 15.0293 15.1625 15.4143V17.6502C16.0843 17.9582 16.8025 18.5467 16.9723 19.42C17.5978 19.6088 18.0439 20.1899 18.0439 20.8575V22.7591C18.74 22.872 19.2663 23.4816 19.2663 24.1956V25.1839C19.2663 25.4423 19.0574 25.6511 18.799 25.6511L8.26904 25.649C8.01064 25.649 7.8018 25.4402 7.8018 25.1818C7.8018 24.3739 7.68579 23.7094 8.22894 23.1663L8.23 23.1673C8.4209 22.9617 8.73414 22.8056 9.02418 22.7581V20.8565C9.02418 20.4452 9.19293 20.0697 9.46609 19.7965L9.46503 19.7955C9.63905 19.6215 9.85526 19.4896 10.0968 19.4179C10.2666 18.5446 10.9848 17.9572 11.9056 17.6481V15.4333C10.6832 15.0568 9.68862 14.2468 8.88588 13.1731C7.73101 13.3387 6.3968 12.7987 5.22306 11.7651C3.81398 10.5237 2.7224 8.65282 2.44719 6.60865C1.9462 2.88562 3.90055 2.75683 5.9499 2.83081C5.93514 2.47854 5.92881 2.13894 5.92881 1.81515C5.92881 1.55886 6.13764 1.35002 6.39604 1.35002L6.39576 1.35ZM20.9957 3.76734C20.788 6.52323 20.1309 9.84126 18.7113 12.2691C21.0031 12.1046 23.2748 9.11658 23.6283 6.48732C24.0227 3.56268 22.5999 3.70821 20.9957 3.76734ZM8.28792 12.268C6.86936 9.84223 6.21124 6.51999 6.00347 3.76626C4.3993 3.70719 2.97758 3.5627 3.36992 6.48516C3.61355 8.30028 4.58597 9.96141 5.83894 11.0646C6.64473 11.7744 7.52117 12.2132 8.28792 12.268ZM14.2268 15.622L12.8389 15.6304V17.4402H14.2268V15.622ZM15.9671 19.3566C15.2942 17.9908 11.7748 17.9908 11.1009 19.3566H15.9671ZM8.7362 24.7156H18.3317C18.3317 24.0089 18.4045 23.6704 17.5766 23.6746H9.25733C9.11389 23.6746 8.98417 23.7326 8.88924 23.8264L8.89029 23.8275C8.67935 24.0384 8.7362 24.3569 8.7362 24.7156ZM9.95857 22.7401H17.1082V20.8575C17.1082 20.5453 16.854 20.2911 16.5418 20.2911H10.5248C10.3698 20.2911 10.2285 20.3544 10.1251 20.4578L10.1241 20.4567L9.95847 20.8575L9.95857 22.7401ZM20.1322 2.28439H6.86842C6.94436 6.08329 8.19309 14.7338 13.5002 14.7338C18.8072 14.7338 20.0563 6.08329 20.1322 2.28439Z" fill="#051C34"/>
</svg>
