<svg width="22" height="22" viewBox="0 0 22 22" fill="none" xmlns="http://www.w3.org/2000/svg">
<path d="M8.93752 0.653141C6.24604 0.650563 3.7211 1.95682 2.16658 4.15422C0.612829 6.35165 0.222681 9.1678 1.12158 11.7046C2.02133 14.2414 4.09664 16.1836 6.6878 16.9125C9.27874 17.6412 12.0624 17.0654 14.1524 15.369L19.8792 21.0959L21.0961 19.879L15.3693 14.1522C16.6927 12.5245 17.3484 10.4542 17.204 8.36089C17.0596 6.26759 16.1264 4.30717 14.5915 2.87629C13.0567 1.44543 11.0363 0.650545 8.93774 0.653185L8.93752 0.653141ZM8.93752 15.5031C7.19642 15.5031 5.52576 14.8114 4.29508 13.5799C3.06359 12.3492 2.37179 10.6785 2.37179 8.93742C2.37179 7.19634 3.06359 5.52566 4.29508 4.29498C5.52572 3.06348 7.19644 2.37169 8.93752 2.37169C10.6786 2.37169 12.3493 3.06348 13.58 4.29498C14.8115 5.52561 15.5032 7.19634 15.5032 8.93742C15.5015 10.6785 14.8089 12.3474 13.5782 13.5781C12.3476 14.8088 10.6786 15.5014 8.93752 15.5031Z" fill="#051C34"/>
</svg>
