<svg width="19" height="25" viewBox="0 0 19 25" fill="none" xmlns="http://www.w3.org/2000/svg">
<path d="M9.49998 0.876831C4.38928 0.876831 0.224976 5.04113 0.224976 10.1518C0.224976 14.1768 4.18033 19.2875 6.80533 22.6822L6.98033 22.8927C7.57505 23.698 8.51977 24.1533 9.50005 24.1533C10.4803 24.1533 11.425 23.698 12.0198 22.8927C12.1948 22.648 12.3698 22.4375 12.5803 22.1927C15.2053 18.8322 18.775 14.2124 18.775 10.1534C18.775 5.04273 14.6107 0.876831 9.49998 0.876831ZM11.8105 21.5965C11.6355 21.8412 11.425 22.0859 11.25 22.2965C10.8303 22.857 10.2 23.1715 9.49998 23.1715C8.79998 23.1715 8.1697 22.857 7.74998 22.2965L7.57498 22.0859C5.0197 18.7965 1.20533 13.8252 1.20533 10.1502C1.20533 5.60024 4.91603 1.85559 9.49998 1.85559C14.0857 1.85559 17.7946 5.56629 17.7946 10.1502C17.7946 13.8963 14.3304 18.3425 11.8105 21.5965Z" fill="#051C34"/>
<path d="M9.49997 6.16248C7.33025 6.16248 5.58032 7.91248 5.58032 10.0821C5.58032 12.2518 7.33032 14.0018 9.49997 14.0018C11.6696 14.0018 13.4196 12.2518 13.4196 10.0821C13.4196 7.91248 11.6696 6.16248 9.49997 6.16248ZM9.49997 13.0218C7.88941 13.0218 6.56053 11.6915 6.56053 10.0823C6.56053 8.47178 7.89081 7.1429 9.49997 7.1429C11.1105 7.1429 12.4394 8.47318 12.4394 10.0823C12.4394 11.6929 11.1105 13.0218 9.49997 13.0218Z" fill="#051C34"/>
</svg>
