<svg width="80" height="31" viewBox="0 0 80 31" fill="none" xmlns="http://www.w3.org/2000/svg">
  <path d="M74.4288 3.12343C74.4254 2.64479 74.5463 2.17372 74.7794 1.75783C75.009 1.34305 75.3459 1.00008 75.7535 0.766133C76.1625 0.529004 76.6253 0.404297 77.0961 0.404297C77.5669 0.404297 78.0296 0.529004 78.4387 0.766133C78.8456 1.0002 79.1816 1.34319 79.4101 1.75783C79.6455 2.17309 79.7687 2.64418 79.7674 3.12343C79.7704 3.60177 79.649 4.07244 79.4154 4.48768C79.1887 4.90469 78.8547 5.25119 78.4492 5.4901C78.1452 5.67098 77.809 5.78884 77.4599 5.83687C77.1109 5.88491 76.756 5.86216 76.4156 5.76996C76.0753 5.67775 75.7562 5.51791 75.477 5.29966C75.1977 5.08141 74.9638 4.80908 74.7886 4.4984C74.5504 4.08082 74.4262 3.60615 74.4288 3.12343ZM79.306 3.12343C79.3071 2.73219 79.209 2.34728 79.0213 2.00576C78.8359 1.66223 78.5627 1.37606 78.2304 1.17755C77.8894 0.970849 77.4991 0.863303 77.102 0.866643C76.7127 0.864217 76.3297 0.966881 75.9921 1.16415C75.6544 1.35787 75.3754 1.642 75.1854 1.98565C74.9905 2.33103 74.8886 2.72256 74.8901 3.12075C74.8872 3.52114 74.9877 3.9153 75.1815 4.26388C75.327 4.52075 75.5209 4.74586 75.7523 4.92628C75.9836 5.1067 76.2477 5.23888 76.5294 5.31521C76.8111 5.39155 77.1049 5.41054 77.3939 5.3711C77.6829 5.33166 77.9613 5.23456 78.2132 5.08538C78.5508 4.88735 78.8284 4.59905 79.016 4.25182C79.2069 3.90659 79.3059 3.51675 79.3034 3.12075L79.306 3.12343ZM76.5563 3.39949V4.62571H75.9882V1.53269H77.0427C77.3605 1.51384 77.6759 1.59986 77.9417 1.77793C78.0479 1.85895 78.1328 1.96523 78.1891 2.08744C78.2454 2.20965 78.2714 2.34404 78.2647 2.47882C78.2647 2.76293 78.1144 2.98137 77.8138 3.13415C77.9607 3.19066 78.0821 3.29981 78.1553 3.44104C78.225 3.59739 78.2584 3.76798 78.2528 3.93957C78.2528 4.13791 78.2528 4.27862 78.266 4.36037C78.2724 4.4319 78.2897 4.50198 78.3174 4.56809V4.62571H77.7348C77.6886 4.39388 77.6722 4.15693 77.686 3.9208C77.6931 3.84876 77.6858 3.77599 77.6645 3.70689C77.6432 3.63779 77.6084 3.5738 77.5621 3.51876C77.4441 3.42656 77.2963 3.38301 77.1482 3.39681L76.5563 3.39949ZM76.5563 2.91168H77.0928C77.2454 2.9172 77.3964 2.87813 77.5278 2.79911C77.5814 2.76812 77.6259 2.72303 77.6565 2.66856C77.6871 2.6141 77.7028 2.55226 77.7018 2.48954C77.709 2.42297 77.7008 2.35561 77.6779 2.29281C77.655 2.23001 77.6181 2.17348 77.57 2.12771C77.4241 2.0415 77.2557 2.00269 77.0875 2.01648H76.5603L76.5563 2.91168Z" fill="white"/>
  <path d="M14.4234 5.50207V3.64062H3.41797V9.46082H13.6325V7.78029H5.79464V5.50207H14.4234Z" fill="white"/>
  <path d="M2.41016 17.3288V2.61816H14.4227V0.818359H0.676758V19.0964H14.6784V17.3288H2.41016Z" fill="white"/>
  <path d="M3.41797 16.3052H14.6791V14.4102H5.79464V12.132H13.6325V10.4863H3.41797V16.3052Z" fill="white"/>
  <path d="M23.8043 8.20919L28.2769 0.818359H26.4552L24.0139 5.77819L21.5265 0.818359H19.2725L23.8043 8.20919Z" fill="white"/>
  <path d="M29.5715 0.818359L24.457 9.27191L30.4666 19.075H32.6719L26.8007 9.40995L32.0734 0.818359H29.5715Z" fill="white"/>
  <path d="M17.232 19.075L23.2257 9.16604L18.1072 0.818359H15.5856L20.9967 9.35902L15.0557 19.075H17.232Z" fill="white"/>
  <path d="M23.8782 10.2305L18.5264 19.0753H20.8595L23.7608 13.629L26.5699 19.0753H29.3011L23.8782 10.2305Z" fill="white"/>
  <path d="M69.9883 0.818359L69.9619 16.1548H79.7678V14.4113H72.1092V0.818359H69.9883Z" fill="white"/>
  <path d="M68.9909 17.1385L69.0199 0.818359H66.7764V19.0964H79.767V17.1385H68.9909Z" fill="white"/>
  <path d="M47.0618 12.0268C47.0407 15.6103 44.4729 18.1096 40.8005 18.1096C36.6667 18.1096 33.8906 14.8799 33.8906 10.0688C33.8906 5.25776 36.6667 2.02804 40.8005 2.02804C44.6601 2.05082 47.0566 4.21781 47.0631 7.68474H48.7596C48.2996 3.0787 45.6817 0.4239 40.9323 0.398438C35.599 0.398438 32.1572 4.2406 32.1572 10.0474C32.1572 15.4883 35.3327 19.6963 40.9323 19.6963C45.9967 19.6963 48.8335 15.751 48.8335 12.0375L47.0618 12.0268Z" fill="white"/>
  <path d="M40.786 4.98754C42.9913 4.98754 43.4764 7.02454 43.574 7.69461H46.0535C46.0469 4.77178 44.1329 3.08456 40.7966 3.06445C37.2164 3.06445 34.9004 5.81574 34.9004 10.0733C34.9004 14.3309 37.2164 17.0822 40.8005 17.0822C44.4084 17.0822 46.0337 14.5507 46.0522 12.0259H43.5977C43.2827 13.7547 42.5801 15.0948 40.786 15.0948C38.2894 15.0948 37.4906 12.5164 37.4906 10.0412C37.4906 7.56596 38.2894 4.98754 40.786 4.98754Z" fill="white"/>
  <path d="M64.4078 5.50207V3.64062H53.4023V9.46082H63.6169V7.78029H55.779V5.50207H64.4078Z" fill="white"/>
  <path d="M52.3955 17.3288V2.61816H64.408V0.818359H50.6621V19.0964H64.6638V17.3288H52.3955Z" fill="white"/>
  <path d="M53.4023 16.3052H64.6635V14.4102H55.779V12.132H63.6169V10.4863H53.4023V16.3052Z" fill="white"/>
  <path d="M2.49057 28.2562V30.852H0.676758V23.1999H3.67956C4.20635 23.1895 4.72863 23.3004 5.20732 23.5242C5.63117 23.7217 5.98867 24.0414 6.2355 24.4435C6.4812 24.8503 6.60785 25.3198 6.60064 25.7971C6.61246 26.1369 6.54729 26.475 6.41015 26.7853C6.27302 27.0955 6.06759 27.3695 5.80973 27.5861C5.28246 28.0328 4.56142 28.2562 3.64661 28.2562H2.49057ZM2.49057 26.8316H3.67692C3.96907 26.8523 4.25761 26.7561 4.48101 26.5636C4.57662 26.4641 4.65066 26.3453 4.69834 26.2148C4.74601 26.0844 4.76628 25.9453 4.75783 25.8064C4.77311 25.4946 4.67134 25.1885 4.4731 24.9501C4.37435 24.8426 4.25405 24.7579 4.12034 24.7017C3.98662 24.6455 3.84261 24.6192 3.69801 24.6244H2.49057V26.8316Z" fill="white"/>
  <path d="M12.446 27.6029H9.59345V29.4322H12.9627V30.8514H7.77832V23.1992H12.9732V24.6238H9.59345V26.2319H12.446V27.6029Z" fill="white"/>
  <path d="M17.7959 28.8181C17.8014 28.6978 17.7786 28.578 17.7296 28.4685C17.6805 28.359 17.6066 28.2629 17.5138 28.1882C17.21 27.9804 16.8759 27.8225 16.5238 27.7205C16.1286 27.5899 15.742 27.4337 15.3665 27.2528C14.391 26.765 13.9033 26.0949 13.9033 25.2426C13.8967 24.8373 14.0249 24.4416 14.2671 24.1196C14.5369 23.7763 14.8938 23.5145 15.2992 23.3624C15.7774 23.1764 16.2862 23.0854 16.798 23.0944C17.2965 23.0866 17.7908 23.1871 18.248 23.3892C18.6533 23.5649 19.0002 23.8557 19.2472 24.2268C19.4871 24.5946 19.6117 25.0278 19.6044 25.4691H17.8011C17.8087 25.3346 17.7874 25.2002 17.7387 25.075C17.69 24.9498 17.615 24.8368 17.519 24.7441C17.3056 24.5636 17.033 24.4717 16.7558 24.4867C16.4834 24.4715 16.2137 24.5483 15.9886 24.7052C15.8994 24.7652 15.8267 24.8473 15.7773 24.9439C15.7279 25.0404 15.7036 25.1481 15.7065 25.2568C15.7094 25.3655 15.7395 25.4717 15.7939 25.5654C15.8483 25.659 15.9253 25.737 16.0176 25.792C16.2246 25.9529 16.5871 26.1163 17.1078 26.2865C17.553 26.4237 17.9829 26.6078 18.3904 26.836C19.2041 27.3131 19.6106 27.9697 19.6097 28.806C19.6222 29.1107 19.5612 29.414 19.4318 29.6892C19.3024 29.9644 19.1087 30.2032 18.8675 30.3847C18.3701 30.7644 17.6887 30.9542 16.8231 30.9542C16.2542 30.9625 15.6901 30.8488 15.1674 30.6205C14.7153 30.4336 14.327 30.1158 14.0509 29.7066C13.797 29.308 13.6662 28.8412 13.6752 28.3664H15.4956C15.4956 28.7765 15.5998 29.0785 15.8081 29.2724C16.0163 29.4662 16.3547 29.5636 16.8231 29.5645C17.075 29.5784 17.3246 29.5093 17.5349 29.3675C17.6192 29.3045 17.6871 29.2216 17.7326 29.1258C17.7781 29.03 17.7998 28.9243 17.7959 28.8181Z" fill="white"/>
  <path d="M26.6595 24.6238H24.4041V30.8514H22.5863V24.6238H20.3691V23.1992H26.6595V24.6238Z" fill="white"/>
  <path d="M34.0553 28.8167C34.0611 28.6965 34.0385 28.5765 33.9894 28.467C33.9404 28.3574 33.8662 28.2613 33.7732 28.1869C33.4701 27.9787 33.1364 27.8208 32.7845 27.7191C32.3889 27.5885 32.0019 27.4323 31.6259 27.2514C30.6504 26.7636 30.1627 26.0936 30.1627 25.2412C30.1569 24.8362 30.2855 24.4411 30.5278 24.1196C30.7968 23.776 31.1533 23.514 31.5586 23.3624C32.0368 23.1764 32.5456 23.0854 33.0574 23.0944C33.5559 23.0863 34.0503 23.1869 34.5074 23.3892C34.9133 23.5646 35.2607 23.8554 35.5079 24.2268C35.7472 24.5949 35.8717 25.0279 35.8651 25.4691H34.0605C34.0684 25.3346 34.0472 25.2 33.9985 25.0748C33.9497 24.9496 33.8746 24.8367 33.7785 24.7441C33.5656 24.5635 33.2934 24.4715 33.0165 24.4867C32.7441 24.4711 32.4742 24.5479 32.2494 24.7052C32.1604 24.7653 32.0879 24.8474 32.0386 24.9439C31.9893 25.0403 31.965 25.1478 31.9677 25.2564C31.9705 25.365 32.0003 25.4711 32.0544 25.5648C32.1085 25.6585 32.1851 25.7367 32.2771 25.792C32.484 25.9529 32.8478 26.1163 33.3685 26.2865C33.8133 26.4236 34.2428 26.6078 34.6498 26.836C35.4644 27.3131 35.8717 27.9706 35.8717 28.8087C35.883 29.1133 35.821 29.4162 35.6913 29.691C35.5615 29.9658 35.3678 30.2044 35.1269 30.386C34.6296 30.7639 33.9485 30.9529 33.0838 30.9529C32.5145 30.9613 31.9499 30.8476 31.4268 30.6192C30.975 30.4316 30.587 30.114 30.3103 29.7052C30.0574 29.3062 29.9271 28.8397 29.936 28.3651H31.7551C31.7551 28.7752 31.8592 29.0771 32.0675 29.271C32.2771 29.4653 32.6145 29.5632 33.0838 29.5632C33.3353 29.5771 33.5845 29.508 33.7943 29.3662C33.8786 29.3032 33.9465 29.2202 33.992 29.1244C34.0375 29.0287 34.0592 28.923 34.0553 28.8167Z" fill="white"/>
  <path d="M41.6794 27.6029H38.8255V29.4322H42.1987V30.8514H37.0117V23.1992H42.2066V24.6238H38.8255V26.2319H41.6794V27.6029Z" fill="white"/>
  <path d="M45.9446 28.1384H44.9679V30.8455H43.1475V23.1934H46.1094C47.0013 23.1934 47.6991 23.3948 48.2026 23.7978C48.7062 24.2007 48.958 24.7694 48.958 25.5037C48.9751 25.9663 48.8646 26.4244 48.639 26.8265C48.3974 27.2032 48.0516 27.4988 47.6451 27.6761L49.2163 30.7664V30.8455H47.272L45.9446 28.1384ZM44.9679 26.7259H46.116C46.4596 26.7259 46.7188 26.6335 46.8937 26.4485C47.0638 26.2276 47.1562 25.9552 47.1562 25.6746C47.1562 25.3941 47.0638 25.1216 46.8937 24.9007C46.7911 24.8011 46.6691 24.7245 46.5356 24.6758C46.4021 24.6271 46.2601 24.6074 46.1186 24.6179H44.9679V26.7259Z" fill="white"/>
  <path d="M53.0861 28.7701L54.5901 23.1992H56.6162L54.0826 30.8514H52.0948L49.5811 23.1992H51.5913L53.0861 28.7701Z" fill="white"/>
  <path d="M59.304 30.8514H57.4902V23.1992H59.2987L59.304 30.8514Z" fill="white"/>
  <path d="M66.8665 28.2613C66.8527 28.7616 66.706 29.2487 66.442 29.6711C66.1761 30.0865 65.7987 30.4157 65.3545 30.6199C64.8521 30.8507 64.3054 30.9647 63.7543 30.9536C62.7656 30.9536 61.987 30.6262 61.4185 29.9713C60.8499 29.3164 60.5656 28.3931 60.5656 27.2013V26.8233C60.5507 26.1468 60.6821 25.4752 60.9505 24.856C61.185 24.3195 61.5708 23.8657 62.0591 23.5521C62.5632 23.24 63.1444 23.0806 63.7345 23.0924C64.6467 23.0924 65.3804 23.3368 65.9358 23.8255C66.4912 24.3142 66.8067 24.9878 66.8823 25.8464H65.0724C65.0592 25.38 64.9406 25.0423 64.7271 24.8426C64.5135 24.6429 64.1787 24.5384 63.7345 24.5384C63.2903 24.5384 62.9515 24.7099 62.7419 25.053C62.5323 25.3961 62.4216 25.9442 62.411 26.6974V27.2334C62.411 28.0491 62.5117 28.6325 62.7129 28.9836C62.9146 29.3334 63.2626 29.509 63.7543 29.509C64.1717 29.509 64.4907 29.4089 64.7113 29.2088C64.9318 29.0086 65.0491 28.6919 65.0632 28.2586L66.8665 28.2613Z" fill="white"/>
  <path d="M72.6029 27.6029H69.749V29.4322H73.1196V30.8514H67.9365V23.1992H73.1301V24.6238H69.749V26.2319H72.6016L72.6029 27.6029Z" fill="white"/>
  <path d="M77.9531 28.8167C77.9586 28.6965 77.9359 28.5767 77.8868 28.4672C77.8378 28.3576 77.7638 28.2616 77.671 28.1869C77.3672 27.979 77.0332 27.8212 76.6811 27.7191C76.2858 27.5886 75.8992 27.4324 75.5237 27.2514C74.5482 26.7636 74.0605 26.0936 74.0605 25.2412C74.0542 24.8364 74.1824 24.4412 74.4243 24.1196C74.6938 23.7759 75.0508 23.514 75.4565 23.3624C75.9346 23.1764 76.4434 23.0854 76.9552 23.0944C77.4537 23.0866 77.9481 23.1871 78.4052 23.3892C78.8106 23.5649 79.1575 23.8557 79.4044 24.2268C79.6444 24.5946 79.7689 25.0278 79.7616 25.4691H77.9571C77.9648 25.3347 77.9437 25.2003 77.8952 25.0751C77.8467 24.9499 77.772 24.837 77.6763 24.7441C77.4634 24.5636 77.1912 24.4717 76.9144 24.4867C76.6415 24.4713 76.3713 24.5481 76.1459 24.7052C76.057 24.7654 75.9845 24.8477 75.9354 24.9441C75.8862 25.0406 75.862 25.1482 75.8649 25.2568C75.8678 25.3654 75.8977 25.4714 75.9519 25.5651C76.0062 25.6587 76.0829 25.7368 76.1749 25.792C76.3818 25.9529 76.7443 26.1163 77.265 26.2865C77.7102 26.4237 78.1401 26.6078 78.5476 26.836C79.3605 27.3131 79.7669 27.9706 79.7669 28.8087C79.779 29.1134 79.7174 29.4166 79.5875 29.6915C79.4577 29.9665 79.2636 30.205 79.0221 30.386C78.5265 30.7639 77.8463 30.9529 76.9816 30.9529C76.4124 30.9613 75.8478 30.8476 75.3247 30.6192C74.8723 30.4326 74.484 30.1147 74.2082 29.7052C73.9542 29.3066 73.8234 28.8399 73.8325 28.3651H75.6529C75.6529 28.7752 75.757 29.0771 75.9653 29.271C76.1736 29.4649 76.5123 29.5623 76.9816 29.5632C77.2331 29.5771 77.4824 29.508 77.6921 29.3662C77.7764 29.3032 77.8443 29.2202 77.8898 29.1244C77.9353 29.0287 77.957 28.923 77.9531 28.8167Z" fill="white"/>
  </svg>
  